<?xml version="1.0" encoding="UTF-8"?>
<svg id="Layer_1" data-name="Layer 1" xmlns="http://www.w3.org/2000/svg" viewBox="0 0 1024 1024">
  <defs>
    <style>
      .cls-1 {
        fill: #5f62af;
      }

      .cls-2 {
        fill: #99a2c2;
      }

      .cls-3 {
        fill: #fbc9ab;
      }

      .cls-4 {
        fill: #568eef;
      }

      .cls-5 {
        fill: #77405d;
      }

      .cls-6 {
        fill: #3b4c71;
      }

      .cls-7 {
        fill: #afacd7;
      }

      .cls-8 {
        fill: #5582cd;
      }

      .cls-9 {
        fill: #c48087;
      }

      .cls-10 {
        fill: #27334e;
      }

      .cls-11 {
        fill: #73a3f9;
      }

      .cls-12 {
        fill: #8492b2;
      }

      .cls-13 {
        fill: #d0ddd5;
      }

      .cls-14 {
        fill: #6971d2;
      }

      .cls-15 {
        fill: #fefefe;
      }

      .cls-16 {
        fill: #aa9def;
      }

      .cls-17 {
        fill: #f6eae0;
      }

      .cls-18 {
        fill: #978eda;
      }

      .cls-19 {
        fill: #b8c1c1;
      }

      .cls-20 {
        fill: #7c7adc;
      }

      .cls-21 {
        fill: #bcaeee;
      }
    </style>
  </defs>
  <path class="cls-4" d="M0,1h1023.01c-.09,272.38.11,544.82,0,817.2-8.89-.32-15.64,3-11.99-8.99-3.1,1.06-7.76-1.02-9.99-1v-9s-26.98.01-26.98.01v-9s-26.97,0-26.97,0v-9s-8.99,0-8.99,0c.09-2.03.43-7.81-.44-9.06l-8.56-.93-.43-8.06-9.12-1.87-.43-8.06h-9s.01-8.99.01-8.99l-8.89-1.09c.77-2.81-.95-6.18-1.1-7.89-.53-6.09.38-12.81,0-18.99h-9s0-17.98,0-17.98h-9s.01-9,.01-9c-17.97-.03-35.98.06-53.95,0-.33,0-.67,0-1,0s-.67,0-1,0c-4.86-2.26-11.56-.43-16.98-1-.07-2.66.05-5.34,0-8-.32-.33-7.26.23-9,0-.03-1.94-.32-8.23-1.66-9.08-3.97-1.57-8.22-.79-12.32-.91-2.32-.07-4.67,0-6.99,0h-5.99c0-.76-.2-1.09-1-1-.29-23.96.21-47.98,0-71.93h-10s.01-8.99.01-8.99h-25.98c.1-.73-.26-1.09-1-.99v-8s-36.85-1.1-36.85-1.1l-.1-7.89-26.98-.99c-.63-.63,1.31-7.74-1.49-9h-26.47c-.05-2.99.06-6.01,0-8.99,2.98.06,6.01-.12,8.99,0,.13,0,1.14.95,2.42,1.04,9.45.64,7.59-1.75,7.57-10.03,2.99-.07,6.01.05,9,0v-9s8.99.01,8.99.01c.04-2.99-.06-6.01,0-9,2.99-.06,6.01.05,9,0v-17.99s8.99.01,8.99.01v-17.98s8.99-1,8.99-1v-36.96h9s-.01-9-.01-9h10s0-26.97,0-26.97h9s.43-9.05.43-9.05l8.56-.93v-9s8.99,0,8.99,0l.93-8.56,9.05-.44v-45.96h-9s-.99-16.98-.99-16.98l1-1,8-.99.96-17.56,9.03.57c-.2,2.6.26,5.43,0,8-.01.1-.97.21-.98.49.17.6.55.43.98.51,2.43.43,7.37.55,8.99-1.5v-26.47c-2.99,0-6,0-8.99,0,.1-6.31-.08-12.67,0-18.99l-9.58-.95.59-8.04h-10s0-7.99,0-7.99l-1-1c-2.66-.05-5.34.08-7.99,0-.66-.02-1.33.01-2,0-1.66-.03-3.33.02-5,0-.67,0-1.33,0-2,0v-17.98h-27.97v-8.99h36.96v-9.99h-17.98v-9s-9.41-.01-9.41-.01l-.58,9.01h-17.98c-.84-5.98-1.93-12.06,0-17.98h-8.99v-17.99h-16.48c-3.02-1.77-.19-7.99-2.43-9.55l-9.06-.43v-9s-17.98,0-17.98,0v-9s-9,.01-9,.01v-9s-8.99.01-8.99.01v-9s-9.99.01-9.99.01v-9s-8.99.01-8.99.01v-10s-8.99,0-8.99,0v-17.98h-9s.01-9,.01-9l-9.06-.43-.94-9.55h-17.98l-.94,9.55-70.5.44-2.36-1.64c-.32-2.77-.14-5.58-.14-8.36,2.99-.06,6.01.05,9,0v-8c-2.84.88-5.83-.79-8-.99-3.15-.29-6.74.07-9.99,0-5.64-.11-11.34.08-16.98,0l-1,1c-.04,2.66.06,5.34,0,7.99-3.32.05-6.68-.04-10,0-.06,3.32.09,6.68,0,10-5.98.1-12.01-.07-17.99,0v8c-1.45-.73-2.84.97-2.99,1-7.88,1.36-24.08.05-32.97,0l-.99-18.99c-2.99-.04-6.01.07-9,0v-7.98s-8.42-.03-8.42-.03c-1.07.16-.54,6.45-.57,8.01-3.32.06-6.67-.04-9.99,0v18.98h-25.48c-2.8-1.25-.86-8.37-1.49-9l-8.56-.93-.43-9.06h-8.42c-.98.13-.62,16.83-.58,18.99-2.99-.06-6,.04-8.99,0l-1,1c.22,14.96-.29,30,0,44.96.06,2.99-.04,6.01,0,9h10c-.07,2.65.05,5.33,0,7.99l-1,1h-17.99c-.03,1.32.04,2.66,0,4-.04,1.66.03,3.33,0,5-5.98.03-12-.04-17.98,0-2.99.02-6-.02-8.99,0-3.32.02-6.67-.05-9.99,0-.06-2.66.04-5.34,0-7.99l-1-1c-1.99-.05-4,.07-5.99,0-9.43-.32-20.61-.52-29.97,0v-9s-9,0-9,0c.08,3.32-.1,6.68,0,10,.08,2.44-.24,4.91.14,7.36l1.5,1.5c8.84.87,17.55-.69,26.33-.86v10s-8.99,0-8.99,0v17.98c2.99,0,6,0,8.99,0-.12,5.98.08,12.01,0,17.98h-18.98v10s10-.01,10-.01v9c5.97.02,12-.04,17.98,0,.01.67,0,1.33,0,2s0,1.33,0,2c.04,4.65-.08,9.34,0,13.99-2.66.06-5.34-.04-7.99,0l-1,1v17.99s9-.01,9-.01v9s17.48,0,17.48,0c2.61,2.13,1.22,5.98,1.5,8.99h17.98v9s-9-.01-9-.01v10s9-.01,9-.01v9s8.99,0,8.99,0v16.48c-1.26,2.8-8.36.86-9,1.49v9h26.48c2.61,2.13,1.22,5.98,1.5,8.99h-28.97l-.44,9.05-7.56.93-1,26.98h10s0,36.96,0,36.96c2.99.03,6-.04,8.99,0,.06,2.99-.04,6.01,0,9,2.99,0,6.01-.02,9,0,.48,24.61-.35,49.32,0,73.93h9s.99,6.99.99,6.99c0,.67,0,1.33,0,2,0,.18-1.05,1.54-1.07,3.38-.13,11.26.13,22.41,1.07,33.59h9s0,17.98,0,17.98h8.99v17.98c2.99.03,6-.04,8.99,0,.05,5.98-.03,12.01,0,17.99,2.98.1,6.02-.14,9,0,.06,9.3-.17,18.67,0,27.97.02,1-.03,2,0,3s-.13,2.07,0,3l-2,3c-5.23.41-10.73-.3-15.98,0-.18,5.04-8.01,2.06-8.8-.69-.95-3.31,1.45-6.24-3.16-7.83-1.51-.52-4.1-.22-5.08-.92-1.65-1.17-.27-4.83-1.87-7.13-1.76-2.52-6.69-1.91-8.18-3.81-1.2-1.53-.62-3.86-1.43-5.57-.64-1.35-2.75-2.03-3.26-3.73-.99-3.29.54-7.63-.64-11.34-.75-2.37-3.31-3.51-4.33-5.66s-.98-7-2.15-7.84l-15.12-.87c-2.17-1.52.58-7.38-2.57-8.42l-25.23-.24-1.55-7.94c-7.33-1.5-9.51-1.42-8.53-9.95-2.28.05-7.36.02-9.01-1.48-1.48-1.34-.68-3.82-1.49-5.5-1.41-2.93-13.84-2.76-17.47-3.01-.04-2.99.03-6.01,0-9h-9s.01-8.99.01-8.99h-9c-.02-2.98.04-6,0-8.99s.03-6.01,0-9c-2.99-.04-6.01.06-9,0-6.29-.12-12.69-.1-18.98,0-2.95.05-5.95-.18-8.89.11l-1.12,7.87-35.48,1.99c-.66,2.72-1.54,5.4-2.47,8.02-2.32.07-4.68-.05-7,0-.02,2.99.04,6.01,0,9-2.99.06-6.01-.05-9,0v9c-2.98.03-6-.03-8.99,0v10s-8.99-.01-8.99-.01c-.05,2.66.07,5.34,0,8-2.34.32-8.27-.9-9.55.94l-1.44,18.05c-2.66.06-5.34-.05-8,0-.06,5.98.09,12.01,0,17.99l-7.94,1.05c-.33,2.94.22,6.01-.05,8.94-.17,1.79-2,5.14-.99,8-.46.47-6.65-.47-8.34-.02-1.05.28-.57,1.95-.65,2.01-.75.53-5.69-.99-7.45-1.04-3.25-.1-21.35-.39-22.58.48l-1.36,7.63c-1.06,1.58-5.89.23-8.53,2.46-.44.37-6.27,8.97-6.5,9.5-2.13,4.97,1.02,6.49-8.52,5.95V1Z"/>
  <path class="cls-16" d="M201.8,725.29c.13,0,1.13,1.03,2.42,1.04,7.79.07,19.93-1.17,27,.01,3.38.56,9.55,5.15,10.33,8.65,1.44,6.41-3.16,21.26,6.21,22.27-.03,1.66.04,3.34,0,5h-18.99s0,8.99,0,8.99c-3.14-.99-6.85.81-9,.99-2.89.25-6.04-.09-8.99,0s-6.01-.07-9,0v9c-2.98.06-6-.05-8.99,0v9s-9.99-.01-9.99-.01v9s-8.99-.01-8.99-.01l-.05,8.95-8.93,1.06v8.99s-9.01-.01-9.01-.01l-.13,8.85-8.85,1.14v16.98l-8.37-.06c-.44.12-1.62,3.29-1.62,3.56v24.48h-9s.01,9,.01,9h-9s0,17.98,0,17.98l-9,1c-.05,5.98.09,12.01,0,17.99-2.99.08-6.01-.06-9,0-.02,5.98.04,12.01,0,17.99-2.99.03-6.01-.03-9,0l-1.04,18.93-8.94.05v17.98h-8.99v27.97h-9s0,21.98,0,21.98H0v-270.74h54.95s.93-8.56.93-8.56c1.2-.83,6.2-.55,8.06-.44,4.11.24,4.88.21,8.99,0,3.31-.17,6.69.12,10,0v9s26.97,0,26.97,0v8.99h26.97l1.01-17.97c2.98-.08,6,.05,8.98,0,.29-2.98,6.04-5.17,8.99-5-.04,1.66.05,3.33,0,5-2.99.06-6-.06-8.99,0-.14,1.42-.36,8.87.57,9.01h8.42c.06-3-.09-6.02,0-9.01,7.38-.14,14.68.27,21.99-1l-1.11-7.88c-3.94-.18-7.94-.19-11.88-.11l.14-7.36,1.5-1.5c11.7.76,23.86-1.21,35.33-1.14Z"/>
  <path class="cls-21" d="M192.81,515.5v9s8.99,0,8.99,0c.03,2.99-.03,6.01,0,9h9s-.01,8.99-.01,8.99h9c.02,2.98-.04,6,0,8.99.03,2.66-.03,5.33,0,7.99,0,.07-.69.5-.67,1.28.06,2.95,1.33,6.45.67,9.72h9c.04,2.98-.03,6,0,8.99h10s0,26.97,0,26.97h9s-.01,10-.01,10h9s-.01,8.99-.01,8.99h9s0,35.96,0,35.96l-11.55,1.94-.44,7.06h-6s.01,9.99.01,9.99c-5.98.02-12.01-.04-17.99,0v-10s-10,.01-10,.01v-9s-8.99,0-8.99,0v-17.98h-17.98v-9s-9,0-9,0l-.86,16.35,1.5,1.5,8.36.13v17.99c2.94.19,6.06-.28,8.99,0l.11,8.89c2.92.98,5.84.97,8.88,1.1.24,11.97-.18,24,0,35.97h-9s0,8.99,0,8.99c-11.46-.07-23.62,1.9-35.33,1.14l-1.5,1.5-.14,7.36c-2.99.06-6.01-.05-9,0-.03,1.33.03,2.67,0,4-2.95-.18-8.7,2.01-8.99,5-2.98.06-6-.07-8.98,0l-1.01,17.97h-26.97v-8.99h-26.97v-9c-3.31.12-6.68-.16-9.99,0-.01-2.99.02-6,0-8.99s.02-6.01,0-9h-9c-.05,2.66.07,5.34,0,8-.08,3.32.06,6.67,0,9.99-1.86-.11-6.86-.39-8.06.44l-.93,8.56H0v-63.94h54.95v-18.98h26.97v-8.99h18.98v-9s9.01-.57,9.01-.57v-8.42s-9.01,0-9.01,0v-26.97h-14.49c-.51,0-2.1,1.59-3.49.99l-.94-9.55-9.06-.44c0-.33,0-.67,0-1,.09-5.98-.06-12.01,0-17.99,2.66-.04,5.34.07,8,0,9.63-.22,19.34.16,28.98,0v-9h-17.99c.06-3.32-.08-6.67,0-9.99.07-2.66-.05-5.34,0-8h9s-.01-9.99-.01-9.99c2.99-.02,6.01.04,9,0s6.01.03,9,0c.02-2.99-.04-6.01,0-9,.67-.01,1.33,0,2,0,5.65-.07,11.34.05,16.99,0v-9c4.31-.04,8.66.07,12.98,0s8.67.05,12.99,0l1-1v-8s9,.01,9,.01v-9c6.29-.1,12.68-.12,18.98,0ZM128.87,597.42h-18.98v9s9,0,9,0c.39,3-1.56,6.68,2.01,7.5-4.03,1.18-1.24,7.76-2.01,11.49h-9s0,7.99,0,7.99l36.97,1v-10s-8.99,1-8.99,1v-8.99s17.98,0,17.98,0v-9.99h-26.97v-8.99Z"/>
  <path class="cls-16" d="M1001.02,808.21c2.23-.01,6.88,2.07,9.99,1-3.65,11.99,3.11,8.67,11.99,8.99-.03,68.58.02,137.22,0,205.8h-21.98v-3c0-2.99,0-6.01,0-9-2.99-.02-6.01.04-9,0-.12-5.99.47-12.09-.44-18.05l-8.56-.93v-17.99s-8.99-.99-8.99-.99v-17.98h-8.99v-17.48c-2.13-2.61-5.98-1.22-8.99-1.5v-17.98l-9.04-.64c-1.74-3.13-1.17-29.73-.95-35.32.07-1.82,2.43-6.09.56-9.05-1.12-1.62-7.28-.89-9.55-.94-.03-9.31.02-18.67,0-27.98h-9c-.04-2.98.06-6,0-8.99,3.1-.19,5.9.84,8.99,1,6.28.32,12.69-.24,18.99,0v-10c8.97-.03,17.99.06,26.97,0,5.98-.04,12.01.02,17.99,0v-9c-2.65-.05-5.34.07-8,0l-1-9c2.88,1.03,7.01-.98,9-.99Z"/>
  <path class="cls-16" d="M72.93,607.41l9.06.44.94,9.55c1.4.59,2.98-.99,3.49-.99h14.49v26.97h9s.01,8.42.01,8.42l-9.01.57v9s-18.98,0-18.98,0v8.99h-26.97v18.98H0v-27.97h9c.31-2.17-.74-6.36.46-8.06.64-.91,2.69-.53,3.61-1.6,1-1.17.9-3.76,2.65-5.37,1.06-.97,8.66-3.95,9.76-3.95h29.47v-15.98c.09-.06-.4-1.74.65-2.01,1.69-.45,7.88.49,8.34.02-1.01-2.86.83-6.21.99-8l7.88-1.1c.3-2.61.05-5.27.11-7.89Z"/>
  <path class="cls-15" d="M0,1v-1h1024v1024h-1c.02-68.58-.03-137.22,0-205.8.11-272.38-.09-544.82,0-817.21H0Z"/>
  <path class="cls-20" d="M54.95,626.39v15.98h-29.47c-1.1,0-8.7,2.98-9.76,3.95-1.75,1.61-1.66,4.21-2.65,5.37-.92,1.08-2.96.69-3.61,1.6-1.2,1.69-.14,5.89-.46,8.06H0v-10c9.54.54,6.39-.98,8.52-5.95.23-.53,6.05-9.13,6.5-9.5,2.65-2.22,7.47-.87,8.53-2.46l1.36-7.63c1.24-.87,19.34-.58,22.58-.48,1.76.06,6.7,1.57,7.45,1.04Z"/>
  <path class="cls-20" d="M219.79,551.46c3.63.24,16.06.08,17.47,3.01.81,1.68,0,4.17,1.49,5.5,1.66,1.49,6.73,1.52,9.01,1.48-.98,8.53,1.2,8.45,8.53,9.95l1.55,7.94,25.23.24c3.15,1.03.41,6.9,2.57,8.42l15.12.87c1.17.84,1.12,5.69,2.15,7.84s3.58,3.29,4.33,5.66c1.18,3.71-.35,8.05.64,11.34.51,1.69,2.62,2.37,3.26,3.73.8,1.7.22,4.03,1.43,5.57,1.48,1.9,6.42,1.29,8.18,3.81,1.59,2.29.22,5.96,1.87,7.13.98.69,3.57.4,5.08.92,4.61,1.59,2.21,4.53,3.16,7.83.79,2.75,8.62,5.73,8.8.69v17.99s-9-.01-9-.01v9s-8.99-.01-8.99-.01l-.93,9.56-9.06.43c-.14,11.97.2,24,0,35.97l-9,1c-.03,2.99.04,6.01,0,8.99s.03,6,0,8.99h-17.98l-1.61,9.05-26.36-.07c0,2.99,0,6.01,0,9-2.99.06-6.01-.04-9,0-.03,1.33.03,2.67,0,4-9.36-1.01-4.77-15.85-6.21-22.27-.79-3.5-6.95-8.09-10.33-8.65-7.07-1.18-19.21.06-27-.01-1.29-.01-2.29-1.04-2.42-1.04v-9s9,.01,9,.01c-.19-11.97.23-24,0-35.97-3.04-.13-5.96-.13-8.88-1.1l-.11-8.89c3,.28,5.89,1.44,9,1,.04,2.99-.06,6.01,0,8.99,6.26.27,12.71.04,18.98,0s12.01.03,17.99,0v-10s5.99.01,5.99.01l.44-7.06,11.55-1.94v-35.96h-9s.01-9,.01-9h-9s.01-9.99.01-9.99h-9s0-26.97,0-26.97h-10c-.02-2.98.04-6,0-8.99s.03-6.01,0-9l-9-1.99c-.03-2.66.03-5.33,0-7.99Z"/>
  <path class="cls-21" d="M938.08,781.24h9s0,8.99,0,8.99h26.97v9s26.98-.01,26.98-.01v9c-1.99.01-6.12,2.03-9,.99l1,9c-3.32-.08-6.68.06-10,0v9c-8.97.06-18-.04-26.97,0v10c-6.28-.24-12.69.32-18.98,0v-18.98c0-12.47.48-24.7,1-36.96Z"/>
  <path class="cls-20" d="M173.83,515.5v9s-9-.01-9-.01v8s-.99,1-.99,1c-4.32.05-8.67-.07-12.99,0,.17-4.75-11.69-7.78-13.55-5.06l-.43,5.06c-3.65.07-7.34-.11-10.99,0-.2.57.43,1.82-.22,2.76-.8,1.17-5.32,2.38-4.78,6.24-.67,0-1.33-.01-2,0,.04-2.99-.03-6.01,0-9,2.32-.05,4.67.07,7,0,.94-2.62,1.81-5.3,2.47-8.02l35.48-1.99,1.12-7.87c2.94-.29,5.93-.06,8.89-.11Z"/>
  <path class="cls-16" d="M91.91,569.44c-.08,3.32.06,6.67,0,9.99h17.98v9c-9.63.16-19.34-.23-28.97,0l1.44-18.05c1.28-1.84,7.21-.62,9.55-.94Z"/>
  <path class="cls-18" d="M786.23,670.35l8.48,8c1.64,1.11,3.57,1.74,5.51,1.99.04,2.7.42,5.5-1,7.99-2.09-.48-2.76-4.76-5.02-6.47-4.61-3.49-14.8-2.4-14.97-11.51,2.32,0,4.67-.07,6.99,0Z"/>
  <path class="cls-16" d="M118.88,542.47c-.04,2.99.03,6.01,0,9-2.99.02-6.01-.04-9,0v-9c2.98-.04,6,.07,8.99,0Z"/>
  <path class="cls-16" d="M192.81,515.5c2.99.06,6.01-.04,9,0,.02,2.99-.04,6.01,0,9h-9s0-8.99,0-8.99Z"/>
  <path class="cls-20" d="M786.23,670.35c4.1.13,8.36-.65,12.32.91,1.34.85,1.63,7.14,1.66,9.08-1.94-.25-3.87-.88-5.51-1.99l-8.48-8Z"/>
  <path class="cls-14" d="M800.22,680.34c1.73.23,8.67-.33,9,0,.05,2.66-.08,5.34,0,8,0,.33,0,.67,0,1-.67,0-1.33,0-2,0-1.67-2.15-5.69-.47-7.99-1,1.42-2.49,1.04-5.29,1-7.99Z"/>
  <path class="cls-20" d="M72.93,606.41c0,.33,0,.67,0,1-.06,2.62.2,5.28-.11,7.89l-7.88,1.1c.27-2.93-.27-6,.05-8.94l7.94-1.05Z"/>
  <path class="cls-12" d="M826.19,689.33c-5.65-.01-11.34.02-16.98,0,0-.33,0-.67,0-1,5.42.57,12.13-1.26,16.98,1Z"/>
  <path class="cls-6" d="M753.26,249.76l-1-1,1,1Z"/>
  <path class="cls-6" d="M772.25,313.69c-.43-.08-.81.09-.98-.51.01-.28.97-.4.98-.49v1Z"/>
  <path class="cls-6" d="M265.74,157.85l-1-1,1,1Z"/>
  <path class="cls-6" d="M311.7,93.91l1-1-1,1Z"/>
  <path class="cls-7" d="M827.19,690.33v-1c.33,0,.67,0,1,0l-1,1Z"/>
  <path class="cls-6" d="M459.55,65.94l1-1-1,1Z"/>
  <path class="cls-6" d="M247.76,249.76l1-1-1,1Z"/>
  <path class="cls-1" d="M311.7,716.3c-.05,3.32.04,6.68,0,10h-9c.04-2.99-.03-6.01,0-9l9-1Z"/>
  <path class="cls-20" d="M164.84,735.28c3.94-.08,7.95-.07,11.88.11l1.11,7.88c-7.3,1.26-14.61.86-21.99,1-.09,2.99.06,6.01,0,9h-8.42c-.94-.13-.71-7.58-.57-9,2.99-.06,6,.06,8.99,0,.05-1.66-.04-3.33,0-5,.03-1.33-.04-2.67,0-4,2.99-.04,6.01.07,9,0Z"/>
  <path class="cls-20" d="M72.93,735.28c.02,2.99-.01,6,0,8.99-4.11.21-4.88.24-8.99,0,.06-3.32-.08-6.67,0-9.99l8.99,1Z"/>
  <path class="cls-18" d="M210.79,772.25v8.99c-2.99.02-6-.06-8.99,0v-9c2.98-.06,6.01.1,8.99,0Z"/>
  <path class="cls-12" d="M219.79,772.25v8.99c-2.99.02-6-.02-8.99,0v-8.99c2.95-.09,6.1.25,8.99,0Z"/>
  <path class="cls-16" d="M128.87,597.42v8.99h26.97v9.99h-17.98v8.99s9-1,9-1v10s-36.97-1-36.97-1v-8s9,.01,9,.01c.76-3.73-2.03-10.31,2.01-11.49-3.57-.82-1.62-4.49-2.01-7.5h-9s0-8.99,0-8.99h18.98Z"/>
  <path class="cls-16" d="M201.8,670.35c-2.93-.27-6.05.2-9,0v-17.99s-8.35-.13-8.35-.13l-1.5-1.5.86-16.35h9s0,9,0,9h17.98v17.98h9s-.01,9-.01,9h10s0,9.99,0,9.99c-6.27.04-12.72.27-18.98,0-.06-2.99.05-6.01,0-8.99-3.11.44-6-.71-9-1Z"/>
  <path class="cls-16" d="M150.85,533.48c-4.32.07-8.67-.05-12.99,0v9c-5.64.05-11.33-.08-16.98,0-.54-3.86,3.98-5.07,4.78-6.24.64-.94.01-2.19.22-2.76,3.65-.1,7.34.08,10.99,0l.43-5.06c1.86-2.72,13.73.31,13.55,5.06Z"/>
  <path class="cls-16" d="M219.79,559.45l9,1.99c.02,2.99-.04,6.01,0,9h-9c.66-3.26-.6-6.76-.67-9.71-.02-.77.67-1.2.67-1.28Z"/>
  <path class="cls-16" d="M63.94,734.28c.07-2.66-.05-5.34,0-8h9c.01,2.99-.02,6.01,0,9l-8.99-1Z"/>
  <path class="cls-16" d="M163.84,533.48l1-1-1,1Z"/>
  <path class="cls-18" d="M937.08,818.2v18.98c-3.1-.16-5.89-1.19-8.99-1-.12-5.97.02-12.01,0-17.98h8.99Z"/>
  <path class="cls-20" d="M993.03,818.2c2.66.07,5.34-.05,8,0v9c-5.98.02-12.01-.04-17.99,0v-9c3.31.06,6.67-.08,9.99,0Z"/>
  <g>
    <path class="cls-8" d="M357.65,634.38c3.01-.42,9.73-3.01,9,2.49l-9,.5c-.03-1,.02-2,0-3Z"/>
    <path class="cls-6" d="M773.24,670.35h-1c0-.33,0-.67,0-1,.8-.09,1,.24,1,1Z"/>
    <g>
      <path class="cls-6" d="M661.35,542.47c.33,0,.67,0,1,0,.02,8.28,1.88,10.67-7.57,10.03-1.28-.09-2.29-1.03-2.42-1.04v-8.99c2.99-.02,6,.05,8.99,0Z"/>
      <g>
        <path class="cls-10" d="M366.64,432.58c-.05,2.99.02,6,0,8.99-2.99-.05-6,.02-8.99,0,0-2.99,0-6.01,0-9,2.99-.05,6.01.08,9,0Z"/>
        <path class="cls-10" d="M477.53,64.94v8.99c-5.98.04-12.01-.1-17.98,0-.07,3.32.05,6.68,0,10-3.32.04-6.68-.06-10,0-.08,2.99.06,6.01,0,9h-9s0,8.99,0,8.99h27.97v9c6.48.18,13.03-.24,19.52-.05,1.7.05,8.45,2.25,8.45-.45v-17.48h-18.98c-.95,0,0-17.19,0-18.98,2.99-.02,6,.06,8.99,0,0-3-.54-6.25,1-8.99,2.17.2,5.15,1.87,8,.99v8c-2.99.04-6.01-.07-9,0,0,2.77-.18,5.58.14,8.36l2.36,1.64,70.5-.44.94-9.55h17.98l.94,9.55,9.06.43v9s8.99,0,8.99,0v17.98h9s-.01,10-.01,10h9s-.01,8.99-.01,8.99h10s-.01,8.99-.01,8.99h9s-.01,8.99-.01,8.99h9s0,8.99,0,8.99h17.98v9s9.05.43,9.05.43c2.24,1.56-.59,7.79,2.43,9.55h16.48v17.98h8.99c-1.93,5.93-.84,12,0,17.98h17.98l.58-9.01h9.42s0,9.01,0,9.01h17.98v9.99h-36.96v8.99h27.97v17.98c-6.31.04-12.67-.03-18.99,0v9c-2.98,0-6,0-8.99,0-.03-2.99.03-6.01,0-9h-9s0,9,0,9c2.99,0,6.01,0,9,0,.03,2.99-.03,6.01,0,9l18.99.99v17.98h-9s0,9,0,9h9s-.01,8.99-.01,8.99h9s-.01,8.99-.01,8.99h9v-17.99h9s-.01-9-.01-9h9s0-8.99,0-8.99h-9s.01-8.99.01-8.99h-9s.01-9.99.01-9.99h-9c.44-3.06-1.56-7.37,2-8.99,1.66.02,3.33-.03,5,0l1.49.99.51-.99c2.65.08,5.34-.05,7.99,0l1,1v8s9.99,0,9.99,0l-.59,8.04,9.58.95c-.08,6.31.1,12.67,0,18.99-2.93,0-5.92-.19-8.84.14-2,3.26-.34,6.33-.1,9.79l8.94.06c.04-3.32-.06-6.67,0-10,2.99,0,6,0,8.99,0v26.47c-1.62,2.05-6.56,1.92-8.99,1.5v-1c.27-2.57-.19-5.39,0-8l-9.03-.57-.96,17.56-8,.99-1,1,.99,16.99h9s0,45.95,0,45.95l-9.05.44-.93,8.56h-9s0,8.99,0,8.99l-8.56.93-.43,9.06h-9s0,26.97,0,26.97h-10s.01,9,.01,9h-9s0,36.96,0,36.96l-8.99,1v17.98s-8.99-.01-8.99-.01v17.99c-2.98.04-6-.07-8.99,0-.06,2.99.04,6.01,0,9h-9s.01,8.99.01,8.99c-2.99.05-6.01-.07-9,0-.33,0-.67,0-1,0v-8.99c2.99-.06,6.01.05,9,0,.04-2.99-.06-6.01,0-9,3.32-.03,6.67.07,9.99,0,.12-5.98-.08-12,0-17.98.13,0,.64-.84,1.46-.86,1.92-.03,4.3,1.43,6.54.87l.99-18.99h9s0-54.94,0-54.94c-2.99,0-6,0-8.99,0-.06-3.32.09-6.67,0-9.99-.07-2.66.05-5.34,0-8-2.95-.19-6.07.27-9,0-.72-.07-1.94-.92-3.44-1.01-5.15-.28-10.39.22-15.54,0l-.93,9.56-17.05-.57c-.03,1.99.05,4,0,6,0,.33,0,.8,0,1-.05.99.04,2,0,2.99h-17.99c-.02,2.99.04,6.01,0,9-3.32-.05-6.68.04-10,0-.03,2.99.05,6.01,0,9,0,.33-.01.67,0,1,.07,2.32-.08,4.67,0,6.99-2.04,2.07-6.17.62-8.99,1-.02-2.99,0-6,0-8.99-.03-8.98.02-18,0-26.97,2.99-.03,6.01.03,9,0v-10s8.99,0,8.99,0v-17.98h-9s.01-9,.01-9h-9c-.06-2.98.05-6,0-8.99-9.31,0-18.67,0-27.98,0-.03-2.99.03-6.01,0-9-5.98,0-12,0-17.99,0s-12,0-17.99,0c-.02,5.98.04,12.01,0,17.99-.06,8.97.13,18,0,26.97-2.99,0-6,0-8.99,0-1.22-20.77,1.64-43.39,0-63.94,8.98.03,18-.02,26.98,0v9s17.98,0,17.98,0v8.99h27.97c-.07-5.65.09-11.34,0-16.98-.05-3.32.04-6.68,0-10h-9s0-17.98,0-17.98h-8.99c-.29-15.11.26-30.28-.05-45.4.32-1.21,2.17-.31,3.05-.55h6c.03-1.32-.04-2.66,0-4,.04-1.66,0-3.33,0-5,0-3.32,0-6.67,0-9.99h-26.47l-2.5,9.99c-2.66-.06-5.34.05-8,0v-18.99c2.99-.02,6.01.04,9,0s6.01.03,9,0v-9s9.99.01,9.99.01v-9h-18.99v-9c-11.97-.04-23.99.07-35.96,0-.33,0-.67,0-1,0l1-9.99h-27.97v-8.99h-27.97c-.06,2.98.08,6.01,0,8.99-9.28-.38-18.69.28-27.98,0v9s-26.97,0-26.97,0c-.37,3.29,1.24,7.61-1.5,9.99h-26.47c-.05,2.99.06,6.01,0,8.99-2.99.06-6.01-.04-9,0-.02,2.99.04,6.01,0,9-2.99.02-6.01-.02-9,0-.04,2.99.06,6.01,0,9s.43,6.11-.44,9.06l-9.56.93v9s-17.98,0-17.98,0c-.03,2.99.04,6,0,8.99-2.99.06-6.01-.04-9,0-.05,2.99.08,6.01,0,9-2.99.03-6.01-.03-9,0,.06,3.32-.08,6.68,0,10,.07,2.66-.05,5.34,0,8h45.97s-.01,8.99-.01,8.99h9c.05,6.3-.08,12.66,0,18.98-2.99,0-6,0-8.99,0-3.32,0-6.67,0-10,0v-9s-26.97,0-26.97,0v9s-9-.01-9-.01v9c15.31,0,30.66,0,45.96,0h8.99c.06,2.99-.05,6.01,0,9h26.98s.99-8,.99-8c.4-.18.79-.95,1-1,1.85-.4,5.77-.03,7.99,0,.06-2.99-.05-6.01,0-8.99h109.89c-.91,3.13.8,6.53,1,8.99-12.64-.04-25.33.03-37.97,0v10c6.46.07,12.48-1.05,18.99-1v9s8.99,0,8.99,0c.05,3.32-.04,6.68,0,10-2.99.02-6.01-.04-9,0s-6.01-.03-9,0v9c-2.98.09-6-.05-8.99,0-3.32.05-6.67.02-9.99,0-.06-2.99.04-6,0-8.99s.06-6,0-8.99.05-6.01,0-9h-17.41s-.57,9-.57,9c-2.99,0-6-.06-8.99,0v8.99c-1.65-.03-8.85.49-9.01-.57v-8.42c3-.04,6.02.07,9.01,0v-8.99c2.74-.21,5.84-1.75,9-.99v-7.42c-.15-1.06-7.35-.54-9-.57-9.3-.17-18.67.23-27.97,0-2.03-.05-5.7-.96-8.99-1-.06,2.99.02,6,0,8.99-.02,3.32,0,6.67,0,9.99-.03,11.97.02,23.99,0,35.96-2.99,0-6,0-8.99,0-.04-1.66.02-3.33,0-5,0-.33,0-.67,0-1-.03-3.99.03-8,0-11.99-.03-3.65.11-7.34,0-10.99-.02-.66.03-1.34,0-2-.02-.33.03-.67,0-1-.09-.98.06-2.01,0-3l-1-1c-2.66-.01-5.33.02-7.99,0-3.32-.02-6.67.01-10,0-.04,6.31.08,12.67,0,18.99-.06,5.6.19,11.25-.14,16.84l-8.85,1.14v17.98h-9s.01,9,.01,9c-3.32.06-6.68-.09-10,0,.06-3.32-.04-6.68,0-10l8.89-.1c.81-2.6.96-5.18,1.1-7.88.18-3.3-.13-6.69,0-10,.63-.63,7.74,1.31,9-1.49v-16.48h-9s-.99,17.99-.99,17.99h-8.99c-.06-2.66.02-5.34,0-8-.02-3.32-.04-6.67,0-9.99.03-2.99-.06-6,0-8.99-8.98.05-18-.04-26.97,0,.01-.67-.02-1.33,0-2,.07-2.66-.05-5.34,0-8h26.98c-.25,3.28.06,6.7,0,10,6.31-.04,12.67.03,18.98,0v-17.98c-7.64-.02-15.33.03-22.98,0-10.3-.04-20.68-.17-30.97,0-3.32.05-6.68-.04-10,0-.04,2.99.06,6.01,0,9h-18.99c.27,18.29-.35,36.66,0,54.95,2.99.04,6.01-.03,9,0,.04,2.99-.06,6.01,0,9,3.32.02,6.67-.01,9.99,0,0,2.99,0,6,0,8.99s.01,6,0,8.99c-.1,20.96.22,41.98,0,62.94l-.99-7h-9c-.35-24.6.49-49.31,0-73.92-2.99-.02-6.01.01-9,0-.04-2.99.06-6.01,0-9-2.99-.04-6,.03-8.99,0v-36.96h-10s1-26.98,1-26.98l7.56-.93.44-9.05h28.97c-.28-3.01,1.11-6.86-1.5-8.99h-26.47v-9c.63-.63,7.74,1.31,8.99-1.49v-16.48h-9s.01-9,.01-9h-9s0-9.99,0-9.99h9s0-8.99,0-8.99h-17.98c-.28-3.01,1.11-6.86-1.5-8.99h-17.48v-9s-9,.01-9,.01v-17.99s1-1,1-1c2.66-.04,5.34.06,7.99,0,.11,6.05-.49,12.07,1,17.98h26.97v-9s-9,.01-9,.01v-9c-6.3.11-12.67-.14-18.98,0-.08-4.65.04-9.34,0-13.99l.99-1.49-.99-.51c0-.67.01-1.33,0-2,9.31.06,18.67-.05,27.98,0v-10s8.99.01,8.99.01v-9s-45.97,1-45.97,1v8s9-.01,9-.01c.04,3.32-.07,6.68,0,10-5.98-.04-12.01.02-17.99,0v-9s-9.99.01-9.99.01v-10h18.99c.08-5.98-.12-12.01,0-17.98-2.99,0-6,0-8.99,0v-17.98h9s0-9.99,0-9.99c2.99-.06,6,.03,8.99,0-.14,6.31.12,12.67,0,18.98-2.99.03-6.01-.03-9,0-.04,2.99.06,6.01,0,9h9c.04-2.98-.06-6,0-8.99,2.99-.03,6.01.03,9,0-.12-6.31.15-12.68,0-18.99-2.99.04-6-.03-8.99,0,.07-3.26-1.25-7.58,2-8.99,1.99.07,4-.05,5.99,0l1,1c.04,2.66-.06,5.34,0,7.99,3.32-.05,6.67.02,9.99,0v9s8.42.01,8.42.01l.57-9.01c5.98-.04,12,.03,17.98,0,1.61-.21,1.58-4.16,0-5,.03-1.33-.04-2.67,0-4h17.99s1-.99,1-.99c.05-2.66-.07-5.34,0-7.99.08-2.99-.02-6,0-8.99,5.98,0,12.01,0,17.99,0v-9s17.98,0,17.98,0v-18.98h17.98v-8s-35.03-.56-35.03-.56l-.93,8.56-17.99.99c-.04,8.98.08,18,0,26.98h-9.99c-.29-14.96.22-29.99,0-44.96l1-1c2.99.04,6-.06,8.99,0,.06,2.99-.04,6.01,0,9h9s0-9,0-9c-2.99-.04-6.01.06-9,0-.04-2.15-.4-18.85.58-19h8.42s.43,9.07.43,9.07l8.56.93c.63.63-1.31,7.74,1.49,9h25.48v-18.98c3.32-.04,6.67.06,9.99,0,.03-1.56-.5-7.85.57-8.01l8.42.03v7.98c-2.98-.06-6.01-.05-8.99,0-.14,6.31.11,12.68,0,18.99,6.31.02,12.67-.04,18.99,0,8.89.05,25.09,1.36,32.97,0l2.41-.09.58-.91v-8c5.97-.06,12,.1,17.98,0,.09-3.32-.06-6.68,0-10,3.32-.04,6.68.06,10,0,.06-2.66-.04-5.34,0-7.99l1-1c5.65.08,11.34-.11,16.98,0ZM523.49,92.91h-17.98v8.99h17.98v-8.99ZM551.46,129.87h-17.98v8.99h17.98v-8.99ZM459.56,138.86h-9v9h9v-9ZM413.6,165.84v-16.48l-1.5-1.5h-17.48v9s-9-.01-9-.01v9h27.98ZM376.64,165.83l-9.06.44-.5,8.62c9.41,3.41,10.45-.35,9.56-9.06ZM688.33,193.81h-24.48c-.31,0-1.41-1.38-2.49-1v9.99h-17.99v8.99h17.98v8.99h26.97v-26.97ZM643.37,239.77h-18.98v8.99h18.98v-8.99ZM302.71,248.75h-9v9h9v-9ZM330.68,257.74h-9v10h9v-10ZM698.32,285.72h-9v9h9v-9ZM606.41,294.71h-9v9h9v-9ZM634.38,312.69h17.98v-9c-6.07-.57-11.96.76-17.99,1v8Z"/>
        <path class="cls-6" d="M707.31,257.75c-2.99,0-6.01,0-9,0v-9s9,0,9,0c.02,2.99-.04,6.01,0,9,2.99,0,6.01,0,9,0v-9c6.3-.02,12.66.05,18.98,0,.67,0,1.33,0,2,0-3.57,1.61-1.56,5.93-2,9h9s-.01,9.99-.01,9.99h9s-.01,8.99-.01,8.99h9s0,8.99,0,8.99h-9s.01,8.99.01,8.99h-9s0,17.98,0,17.98h-9s.01-9,.01-9h-9s.01-8.99.01-8.99h-9s0-8.99,0-8.99h9s0-17.98,0-17.98l-18.99-.99c-.02-2.99.04-6.01,0-9Z"/>
        <path class="cls-6" d="M256.75,184.82c-.06,2.99.04,6.01,0,9h-9c.06-2.99-.04-6.01,0-9,2.99-.02,6.01.04,9,0Z"/>
        <path class="cls-6" d="M265.74,165.84c.15,6.31-.11,12.68,0,18.99-2.99.02-6.01-.04-9,0,.12-6.31-.14-12.67,0-18.98,2.99-.03,6,.04,8.99,0Z"/>
        <path class="cls-6" d="M228.78,156.85c9.36-.52,20.54-.32,29.97,0-3.25,1.41-1.92,5.73-2,8.99-2.99.03-6-.06-8.99,0-8.78.17-17.5,1.73-26.33.86l-1.5-1.5c-.38-2.44-.06-4.91-.14-7.36,3.09.18,5.92-.83,8.99-1Z"/>
        <path class="cls-6" d="M385.62,73.93c2.99.06,6.01-.05,9,0l.99,18.99c-6.31-.04-12.67.02-18.99,0,.11-6.31-.14-12.68,0-18.99,2.98-.05,6.01-.06,8.99,0Z"/>
        <path class="cls-6" d="M321.69,138.86c.07-8.98-.05-18,0-26.98l17.99-.99.93-8.56,35.04.56v8h-17.99v18.98h-17.98v9c-5.98,0-12,0-17.98,0-.02,2.99.08,6.01,0,8.99h-10c-.04-2.98.06-6,0-8.99h9.99Z"/>
        <path class="cls-10" d="M219.79,157.85c-.1-3.32.07-6.68,0-10h9s0,9,0,9c-3.07.17-5.9,1.18-8.99,1Z"/>
        <path class="cls-6" d="M477.53,73.93c0,1.79-.95,18.98,0,18.98h18.98v17.48c0,2.71-6.75.5-8.45.45-6.49-.19-13.04.23-19.53.05v-9s-27.97,0-27.97,0v-9s9,.01,9,.01c.05-2.99-.08-6.01,0-9,3.32-.05,6.68.04,10,0,.05-3.32-.08-6.68,0-10,5.98-.1,12,.04,17.98,0Z"/>
        <path class="cls-6" d="M487.52,64.94c-1.54,2.74-.99,5.99-1,8.99-2.99.06-6-.02-8.99,0v-8.99c3.25.07,6.84-.29,9.99,0Z"/>
        <path class="cls-6" d="M284.72,165.84l-.57,9.01h-8.42s0-9.01,0-9.01c2.99-.02,6,.02,8.99,0Z"/>
        <path class="cls-6" d="M302.7,165.84c.03-1.66-.04-3.33,0-5,1.58.83,1.61,4.78,0,5Z"/>
        <path class="cls-6" d="M431.58,91.91l-.58.91-2.41.09c.16-.03,1.54-1.73,3-1Z"/>
        <path class="cls-6" d="M256.75,234.77c0-.67,0-1.33,0-2l.99.51-.99,1.49Z"/>
        <path class="cls-6" d="M744.27,248.76l-.51.99-1.49-.99c.67.01,1.33-.02,2,0Z"/>
        <path class="cls-6" d="M753.26,323.68l1-1-1,1Z"/>
        <path class="cls-6" d="M320.69,156.85l1-1-1,1Z"/>
        <path class="cls-11" d="M321.69,368.64c-.41,21.27.02,42.66,0,63.94-3.32-.01-6.67.02-9.99,0-.06-2.99.04-6.01,0-9-2.99-.02-6.01.04-9,0-.36-18.29.27-36.66,0-54.95h18.99Z"/>
        <path class="cls-6" d="M688.33,193.81v26.97h-26.97v-8.99h-17.98v-8.99h17.98v-9.99c1.08-.38,2.19,1,2.5,1h24.48Z"/>
        <path class="cls-6" d="M256.75,230.77c-.06-3.32.05-6.68,0-10h-9s0-7.99,0-7.99l45.97-1v9s-9-.01-9-.01v10c-9.3-.05-18.66.05-27.97,0Z"/>
        <path class="cls-6" d="M606.41,386.62h9s-.01,9-.01,9h9s0,17.98,0,17.98h-9s.01,10,.01,10c-2.99.02-6.01-.04-9,0-.02-9.31.05-18.66,0-27.97-.02-2.99.06-6,0-8.99Z"/>
        <polygon class="cls-6" points="413.6 165.84 385.62 165.84 385.62 156.84 394.62 156.85 394.61 147.86 412.1 147.86 413.6 149.35 413.6 165.84"/>
        <path class="cls-6" d="M256.75,248.76c6.31-.15,12.68.11,18.99,0v9s8.99-.01,8.99-.01v9h-26.98c-1.49-5.92-.89-11.93-1-17.98Z"/>
        <rect class="cls-6" x="624.39" y="239.77" width="18.98" height="8.99"/>
        <rect class="cls-6" x="505.51" y="92.91" width="17.98" height="8.99"/>
        <rect class="cls-6" x="533.48" y="129.87" width="17.98" height="8.99"/>
        <path class="cls-6" d="M634.38,312.69v-8c6.02-.24,11.91-1.57,17.99-1v9h-17.99Z"/>
        <path class="cls-6" d="M376.64,165.83c.9,8.71-.15,12.47-9.56,9.06l.5-8.62,9.06-.44Z"/>
        <path class="cls-6" d="M772.25,285.72c-.05,3.32.04,6.68,0,10l-8.94-.06c-.24-3.46-1.9-6.53.1-9.79,2.92-.33,5.91-.15,8.84-.14Z"/>
        <rect class="cls-6" x="321.68" y="257.74" width="9" height="10"/>
        <path class="cls-6" d="M321.69,92.91c2.99.06,6.01-.04,9,0v9s-9,0-9,0c-.04-2.99.06-6.01,0-9Z"/>
        <rect class="cls-6" x="450.55" y="138.86" width="9" height="9"/>
        <rect class="cls-6" x="293.71" y="248.75" width="9" height="9"/>
        <rect class="cls-6" x="689.32" y="285.72" width="9" height="9"/>
        <rect class="cls-6" x="597.41" y="294.71" width="9" height="9"/>
      </g>
      <g>
        <path class="cls-3" d="M578.44,377.63c.03,2.99-.03,6.01,0,9h18.99s-.01,8.99-.01,8.99h9c.05,9.3-.02,18.66,0,27.97-2.99.03-6.01-.03-9,0v26.4s9,.57,9,.57c0,2.99-.02,6,0,8.99.04,6.31-.02,12.67,0,18.99h9s0,18.98,0,18.98h9c-1.05,9.56,1.07,10.41,9.88,7.89l.11-17.88c2.99.02,6.01-.01,9,0v-8s.99-1,.99-1c2.32-1.57,5.42-.84,7.99-1,2.97-.18,6.02.13,9,0v-9s18.98,0,18.98,0v9s8.99,0,8.99,0v-26.97l-9.01-.58v-17.41s9.01,0,9.01,0c2.99,0,6,0,8.99,0v54.95h-9s-.99,18.99-.99,18.99c-2.23.56-4.61-.9-6.54-.87-.82.01-1.33.86-1.46.86-3.32.08-6.68-.06-10,0-.08,5.98.12,12.01,0,17.99-2.99.02-6-.06-8.99,0s-6.01-.05-9,0c-.04,2.99.07,6.01,0,9-2.99.06-6.01-.05-9,0-.04,2.99.07,6.01,0,9h-27.97c-.06-2.99.02-6,0-8.99-.05-8.98.04-18,0-26.98h-9s.01,9,.01,9h-9c-.04,2.98.06,6,0,8.99-2.99,0-6.01,0-9,0l-.99,26.98h-9c-.04,2.98.07,6,0,8.99-.07,3.32.07,6.67,0,9.99l-8.02-.58c-1.64,1.2-.95,7.25-.97,9.57-5.98.12-12.01-.08-17.99,0-.04,2.99.06,6.01,0,9h-9s.01,9,.01,9h-9s0,8.99,0,8.99c-3.3-.1-6.69-.07-9.99,0-2.99.06-6.01-.05-9,0v9c-5.98.12-12.09-.47-18.04.44l-.94,8.56h-17.98c.06,3.32-.08,6.67,0,9.99h-27.98s0,8.99,0,8.99c-24.28-.38-48.64.28-72.93,0-.07-.47-.52-.89-1-1v-8s-8,.01-8,.01l-.11-26.4c-.6-2.52-7.75-1.48-9.87-1.58-.04-5.98.02-12.01,0-17.99-2.99-.02-6.01.04-9,0-.05-6.31.03-12.67,0-18.99h-9s0-17.98,0-17.98h-9s.01-35.97.01-35.97h-9c0-.66,0-1.33,0-1.99.22-20.96-.1-41.98,0-62.94h44.96c.02,2.99-.06,6,0,8.99s-.05,6.01,0,9h10c.06,2.98-.05,6,0,8.99h9v-17.99c-2.99-.01-6,.02-8.99,0-.04-2.99.06-6,0-8.99s.05-6.01,0-9c-3.32-.04-6.68.06-10,0,.02-2.99-.05-6,0-8.99,3.32-.09,6.68.06,10,0v-9s8.99,0,8.99,0v-17.98l8.85-1.14c.33-5.59.08-11.24.14-16.84,5.89-2.13,12.8-.51,18.98-1,.03,3.99-.03,8,0,11.99l-.98.5.98.5c.02,1.66-.04,3.33,0,5,.07,2.99-.05,6.01,0,9h8s.99,7.99.99,7.99c.03.66-.05,1.34,0,2h9c.02,2.99-.04,6,0,8.99s-.03,6.01,0,9c2.99.04,6.01-.07,9,0,.04,2.99-.03,6,0,8.99h82.92v-9s9,.01,9,.01v-9s9.55-.93,9.55-.93c.88-5.95.35-12.06.44-18.05.13-8.97-.06-18,0-26.97h17.99c.01-2.98-.02-6,0-8.99h17.98ZM404.6,450.56c-3.32.06-6.68-.04-10,0v9.42c.31,2.15,9.14-.38,10-.42,2.82-.14,6.18-.17,8.99,0,.75.05,8.69,2.58,9.01.42v-9.42c-3-.04-6.02.07-9.01,0s-6.01-.05-8.99,0ZM440.57,524.49c-24.62-.13-49.3.1-73.93,0v17.98h18.98v-9c18.3-.07,36.65.11,54.95,0,6.31-.04,12.67.02,18.99,0v-8.42c-.14-1.02-16.79-.56-18.99-.58Z"/>
        <path class="cls-3" d="M331.68,359.65l-1,9h8s.99,6.99.99,6.99c-.02.67.01,1.33,0,2-.05,2.99.02,6,0,8.99-2.99.06-6.01-.04-9,0,0,2.99.01,6.01,0,9,0,1.63-.47,8.85.57,9.01h8.42c.04-3-.07-6.02,0-9.01,8.97,0,18.16-.64,26.97,1,.02,2.66-.06,5.34,0,7.99.06,2.99-.05,6.01,0,9l10,.99c-.15,2.71-.29,5.28-1.1,7.88l-8.89.1c-.04,3.32.06,6.68,0,10-2.99.08-6.01-.06-9,0,0,2.99,0,6.01,0,9-11.97-.06-23.99.05-35.96,0,0-2.99,0-6,0-8.99.02-21.28-.41-42.67,0-63.94.06-2.99-.04-6.01,0-9,3.32-.04,6.68.06,10,0Z"/>
        <path class="cls-9" d="M569.44,579.43c-.02,2.99.01,6.01,0,9l9.06-.44.93-8.56h9s0-17.98,0-17.98l8.99-1v45.96c2.99.02,6-.03,8.99,0v63.94c-2.99.03-6.01-.03-9,0-.06,3.32.09,6.68,0,10-2.99.06-6.01-.04-9,0v9c-.33,0-.66,0-.99,0-2.99.07-6.01-.05-9,0-.05,2.99.08,6.01,0,9-2.99.03-6.01-.03-9,0v9s-8.99-.01-8.99-.01c-.06,3.32.09,6.68,0,10-2.99.03-6.01-.03-9,0-.02,2.99.04,6.01,0,9-3.65.08-7.34-.11-10.99,0,2.24-9.14,2.09-18.62,2-27.98h-9s0-8.99,0-8.99h-18.98v-8.99h-26.47c-2.8-1.26-.86-8.36-1.49-9l-26.98-1v10s-9.99,0-9.99,0c.06-9.1-.17-18.23.14-27.33l1.5-1.5,8.36-.13v-7.42c-.14-1.06-8.25-.55-10-.57v-9s27.97,0,27.97,0c.07,2.65-.05,5.34,0,7.99h17.98v-7.99h18.98v-8.99h18.98v-9s9,.01,9,.01l-.44-9.06-1.2-.8c-2.44-.38-4.91-.06-7.36-.14v-9s9,.01,9,.01v-9s8.99,0,8.99,0c-.12,5.98.09,12.01,0,17.99h9v-17.99c-2.99,0-6,0-8.99,0,.06-2.99-.04-6.01,0-9,5.98-.08,12.01.12,17.99,0,.02-2.31-.67-8.37.97-9.57l8.02.58c-.06,2.99.05,6.01,0,9-2.99.04-6.01-.06-9,0Z"/>
        <path class="cls-3" d="M449.56,680.34h10s-.01-10-.01-10l26.98,1c.63.63-1.31,7.74,1.49,9h26.47v8.99h18.98v9s9-.01,9-.01c.08,9.36.24,18.84-2,27.98-2.32.07-4.68-.05-7,0-.04,2.99.07,6.01,0,9h-10s.01,8,.01,8c-2.54-.72-4.08.46-6,.99-.75.21-2.02-.29-2.92.04-.17,2.97-.07,5.97-.07,8.95-5.98.04-12.01-.03-17.99,0v9c-15.62-.24-31.32.3-46.95,0,.08-5.98-.12-12.01,0-17.98,3.32-.06,6.68.04,10,0,.04-2.99-.06-6.01,0-9,.12-5.98-.09-12.01,0-17.99h-9s-1-1.99-1-1.99c-.23-2.53.05-5.39,0-7.99-.17-8.96-.06-18.01,0-26.97Z"/>
        <path class="cls-5" d="M449.56,643.37c1.75.03,9.85-.48,10.01.57v7.42s-8.37.13-8.37.13l-1.5,1.5c-.31,9.1-.08,18.24-.14,27.33s-.17,18.02,0,26.97h-8.99v-45.96h-9s.01-9,.01-9l-54.96-.99c-.32-.31.24-6.39,0-8,24.29.28,48.65-.38,72.93,0Z"/>
        <path class="cls-5" d="M597.42,524.49c2.99,0,6.01,0,9,0,.04,2.99-.06,6.01,0,9,.47,24.25,0,48.66,0,72.93,1.64.02,8.85-.48,9.01.57v63.37c-3,.02-6.02-.04-9.01,0v-63.94c-2.99-.03-6,.02-8.99,0v-45.96l-8.99,1v17.98h-9s-.93,8.56-.93,8.56l-9.06.44c.02-2.99-.02-6.01,0-9,2.99-.06,6.01.04,9,0,.04-2.99-.07-6.01,0-9,.07-3.32-.07-6.67,0-9.99h10s.05-7.94.05-7.94l8.93-1.06c.15-8.97-.17-18,0-26.96Z"/>
        <path class="cls-9" d="M597.42,524.49c.06-2.99-.04-6.01,0-9h9s-.01-8.99-.01-8.99h9c.03,8.98-.06,18,0,26.98h-8.99c-.06-2.99.04-6.01,0-9-2.99,0-6.01,0-9,0-.17,8.97.14,18,0,26.96l-8.93,1.06-.05,7.95h-10c.06-2.99-.05-6.01,0-9h9s.99-26.97.99-26.97c2.99,0,6.01,0,9,0Z"/>
        <path class="cls-5" d="M643.37,542.47c-.06,2.98-.06,6.01,0,8.99-9.3-.17-18.67.12-27.98,0-.04-2.99.07-6.01,0-9h27.97Z"/>
        <path class="cls-9" d="M459.55,735.28c-.06,2.99.04,6.01,0,9-3.32.04-6.68-.06-10,0-.12,5.98.08,12,0,17.98-2.99-.06-6.01.04-9,0-.01-2.99.02-6.01,0-9s.01-6,0-8.99c2.99-.02,6,.05,8.99,0,.06-2.99-.04-6.01,0-9h10Z"/>
        <path class="cls-9" d="M450.56,717.3c-1.26-.12-.92-1.11-1-2l1,2Z"/>
        <path class="cls-9" d="M376.63,643.37l-1-1c.48.11.93.53,1,1Z"/>
        <path class="cls-3" d="M477.53,211.79c5.56.23,11.99,1.89,17.99.99l.13,7.36,1.5,1.5c11.77.3,23.57.08,35.33.14.33,0,.67,0,1,0v8.99h17.98v9s17.99-.01,17.99-.01v9c-2.99.03-6.01-.03-9,0v18.99c2.65.04,5.34-.07,8,0,9.63.22,19.34-.16,28.97,0,0,1.66.04,3.33,0,5-.94,3.35-2.74,3.1-5.99,4-.88.24-2.73-.66-3.05.55.32,15.12-.24,30.29.05,45.4.06,2.99-.04,6.01,0,9h8s.99,17.98.99,17.98l9,.99c.09,5.64-.07,11.34,0,16.98h-27.97v-8.99h-17.98v-9c-8.97-.01-17.99.03-26.97,0,1.64,20.55-1.22,43.17,0,63.94-.33,0-.67,0-1,0-2.99.07-6.01-.05-9,0-.06,3.32.09,6.68,0,10-.08,2.99.06,6.01,0,9h-9s.01,8.99.01,8.99c-21.63-.1-43.31.12-64.94,0v-10s-9,.01-9,.01v-9s-8.99,0-8.99,0c1.1-2.83-.97-7.41-.99-9-.02-1.86,2.05-6.2,1-9h-9c.02-11.97-.03-23.99,0-35.96h9s-.01-9-.01-9c9.12-.51,18.95.7,27.98,0v-8.99c1.65.03,8.85-.49,9.01.57v7.42c-3.17-.75-6.27.78-9.01.99v8.99c-2.99.06-6.01-.05-9,0v8.42c.15,1.07,7.35.54,9,.57,2.99.06,6,0,8.99,0v9c5.98.02,12-.05,17.98,0,.06,2.99-.05,6.01,0,9l9.06-.44.94-8.56c2.99-.05,6.01.09,8.99,0,2.67-.08,5.45.44,8.06-.44l.93-8.56c2.99-.03,6.01.03,9,0-.04-3.32.05-6.68,0-10-.05-2.99.04-6.01,0-9-2.99-.01-6.01.03-9,0-6.51-.04-12.53,1.07-18.99,1v-10c12.64.04,25.33-.03,37.97,0-.2-2.46-1.91-5.86-1-8.99h-109.89c-.05,2.99.06,6.01,0,8.99-2.23-.03-6.14-.4-7.99,0l-1,1-.99,8h-26.98c-.04-2.99.07-6.01,0-9s.04-6,0-8.99c-.08-6.31.05-12.67,0-18.99h-9s.01-8.99.01-8.99h-45.97c-.05-2.64.07-5.33,0-7.99h9c.06-3.31-.09-6.67,0-9.99,2.99-.03,6.01.03,9,0,.02-2.99-.04-6.01,0-9,6.31-.12,12.68.09,18.99,0v-9s17.98,0,17.98,0v-17.98h9c.04-3.31-.06-6.67,0-9.99.05-2.99-.06-6,0-8.99,9.3-.18,18.67.13,27.98,0v-9s26.97,0,26.97,0v-8.99h27.97c.06-3.32-.09-6.67,0-9.99ZM486.52,294.71c-8.98-.06-18,.05-26.98,0v9s-18.98,0-18.98,0c-.45,0,0,7.66,0,8.99h-9c.04,3.31-.05,6.67,0,9.99.05,2.99-.04,6.01,0,9,27.62-.21,55.3.26,82.92,0,2.99-.03,6,.07,8.99,0,2.44-.05,5.83.39,7.99,0,.59-.11,1.15-.54,1.55-.99.41-.68-.55-.95-.55-1.01.09-2.65-.17-5.35,0-7.99.12-1.96,2.03-5.97,1-9l-10-.99v-6.99l-9-.99c-.02-2.99.04-6.01,0-9s.03-6.01,0-9h-27.4s-.57,9-.57,9Z"/>
        <path class="cls-9" d="M680.34,414.6v8s8.99,0,8.99,0c.09,3.32-.06,6.67,0,9.99h-9s-.01,17.41-.01,17.41l9.01.58v26.97h-9s0-8.99,0-8.99h-18.98v9c-2.97.13-6.02-.19-8.99,0v-9s-9,.01-9,.01c.09-5.98-.11-12.01,0-17.99,2.99,0,6.01,0,9,0,.02-2.99-.04-6.01,0-9,5.98-.12,12.01.08,17.99,0v-9h-17.99c-.03,2.99.04,6,0,8.99-2.99.06-6.01-.04-9,0-.04,2.99.06,6.01,0,9-2.99,0-6,0-8.99,0-.06-2.99.04-6.01,0-9-2.99-.03-6.01.05-9,0,.03-2.99-.03-6.01,0-9h17.99c.03-.99-.05-2,0-2.99v-1c.04-2-.04-4.01,0-6l17.05.57.93-9.56c5.15.22,10.39-.29,15.54,0,1.51.08,2.72.94,3.44,1.01Z"/>
        <path class="cls-9" d="M542.47,413.6c-.08,5.99.44,12.09-.44,18.05l-9.56.93v9s-8.99-.01-8.99-.01v9s-82.91,0-82.91,0c-.03-2.99.04-6,0-8.99-2.99-.06-6.01.05-9,0-.02-2.99.04-6.01,0-9h9c.02,2.98-.04,6,0,8.99,2.99.06,6-.02,8.99,0,21.63.13,43.31-.1,64.94,0v-9s8.99.01,8.99.01c.05-2.99-.08-6.01,0-9h9s0-9.99,0-9.99c.33,0,.67,0,1,0,2.99,0,6,0,8.99,0Z"/>
        <path class="cls-9" d="M477.53,211.79c.08-2.98-.06-6.01,0-8.99h27.97v8.99h27.97l-1,9.99c-11.76-.06-23.56.17-35.33-.14l-1.5-1.5-.13-7.36c-6,.9-12.43-.77-17.99-.99-.09,3.32.06,6.67,0,9.99h-27.97v8.99h-26.97v9c-9.3.13-18.67-.19-27.97,0,.06-2.99-.05-6.01,0-8.99h26.47c2.74-2.38,1.13-6.7,1.5-9.99h26.97v-9c9.28.29,18.69-.38,27.97,0Z"/>
        <path class="cls-9" d="M533.48,221.78c11.97.06,24-.04,35.97,0v9s18.98,0,18.98,0v9s-10-.01-10-.01v9c-2.98.02-6-.04-8.99,0v-9s-17.99.01-17.99.01v-9s-17.98,0-17.98,0v-8.99Z"/>
        <path class="cls-9" d="M376.63,349.66c-15.31,0-30.66,0-45.96,0v-9s9,.01,9,.01v-9s26.97,0,26.97,0v9c3.32,0,6.67,0,9.99,0v8.99Z"/>
        <path class="cls-9" d="M615.4,458.55c0,.13.97,1.13,1.04,2.42.29,5.49-.29,11.08-.05,16.57,2.66.05,5.34-.07,8,0-.02-2.99.01-6.01,0-9h10c-.06,2.99.04,6.01,0,9-3.32-.06-6.68.08-10,0,.02,2.3-.66,8.45.93,9.55,2.94.84,6.06.41,9.06.44l-.11,17.88c-8.8,2.52-10.92,1.67-9.88-7.89h-9s0-18.98,0-18.98h-9c-.02-6.31.04-12.67,0-18.98,2.82-.38,6.95,1.08,8.99-1Z"/>
        <path class="cls-9" d="M394.61,248.76c-.06,3.32.04,6.68,0,10h-9s0,17.98,0,17.98h-17.98v9c-6.31.08-12.67-.13-18.98,0-.04,2.99.03,6.01,0,9-2.99.02-6.01-.04-9,0-.09,3.32.06,6.68,0,10h-9c-.08-3.32.06-6.68,0-10,2.99-.02,6.01.04,9,0,.08-2.99-.06-6.01,0-9,2.99-.04,6.01.06,9,0,.04-2.99-.03-6,0-8.99h17.98v-9s9.55-.93,9.55-.93c.87-2.94.38-6.05.44-9.06h9c.02-2.98-.04-6,0-8.99,2.99-.02,6,.01,8.99,0Z"/>
        <path class="cls-3" d="M625.39,441.57c2.99.05,6.01-.04,9,0,.04,2.99-.06,6.01,0,9,.12,5.96.12,12.03,0,17.98h-10c.02,2.98-.02,6,0,8.99-2.66-.07-5.34.05-8,0-.24-5.49.33-11.08.05-16.57-.07-1.29-1.04-2.29-1.04-2.42-.08-2.32.07-4.67,0-6.99l1-1h9c.02-2.98-.04-6,0-8.99Z"/>
        <path class="cls-9" d="M459.55,350.66v8.99c-9.03.7-18.86-.51-27.98,0v9s-8.99,0-8.99,0c0-3.32-.02-6.67,0-9.99h9s0-7.99,0-7.99c9.3.23,18.67-.17,27.97,0Z"/>
        <path class="cls-3" d="M362.65,359.65c7.64.03,15.33-.02,22.98,0v17.98c-6.31.03-12.67-.04-18.98,0,.06-3.29-.25-6.72,0-9.99.1-1.26,2.05-4.52,1-6.99l-4.99-1Z"/>
        <path class="cls-9" d="M578.44,377.63c9.31,0,18.67,0,27.98,0,.04,2.99-.07,6.01,0,9s-.02,6,0,8.99h-9s.01-9,.01-9h-18.99c-.02-2.98.04-6,0-8.99Z"/>
        <path class="cls-9" d="M560.45,368.64c-.01,2.99.02,6,0,8.99s.02,6.01,0,9h-17.99c.04-5.99-.02-12.01,0-17.99,5.98,0,12,0,17.99,0Z"/>
        <path class="cls-9" d="M362.65,359.65l4.99,1c1.05,2.47-.9,5.73-1,6.99h-26.98c-.05,2.65.07,5.34,0,7.99l-.99-7h-8s1-8.99,1-8.99c10.29-.17,20.67-.04,30.97,0Z"/>
        <path class="cls-9" d="M568.44,267.74l2.5-9.99h26.47c0,3.32,0,6.67,0,9.99-9.64-.16-19.34.22-28.97,0Z"/>
        <path class="cls-9" d="M404.6,368.64v9c3.06-.44,7.38,1.57,8.99-2,.11,3.65-.03,7.34,0,10.99-6.19.49-13.1-1.14-18.98,1,.07-6.31-.05-12.67,0-18.99,3.32.02,6.67-.02,10,0Z"/>
        <path class="cls-9" d="M366.64,404.6h8.99s.99-17.99.99-17.99h9v16.49c-1.26,2.8-8.36.86-9,1.49-.13,3.31.19,6.69,0,10l-10-.99c-.04-2.99.07-6.01,0-9Z"/>
        <path class="cls-13" d="M366.64,386.62c-.04,3.32-.02,6.67,0,9.99-8.81-1.64-18-1-26.97-1,.06-2.99-.02-6,0-8.99,8.97-.18,18,.13,26.97,0Z"/>
        <path class="cls-9" d="M606.41,423.59c.02,8.98-.03,18,0,26.97l-9.01-.57v-26.4c3-.02,6.02.04,9.01,0Z"/>
        <path class="cls-19" d="M366.64,377.63c-.06,2.99.03,6,0,8.99-8.97.13-18-.18-26.97,0,.02-2.99-.05-6,0-8.99,8.98-.04,18,.05,26.97,0Z"/>
        <path class="cls-9" d="M680.34,506.51c-.08,5.98.12,12.01,0,17.98-3.32.07-6.67-.03-9.99,0,.12-5.98-.08-12.01,0-17.99,3.32-.05,6.68.09,10,0Z"/>
        <path class="cls-9" d="M422.59,404.6h9c1.05,2.79-1.03,7.13-1,8.99h-8c.09,2.64-.12,5.35,0,7.99l-.99-8h-8c-.05-2.98.07-6,0-8.99,2.99,0,6,0,8.99,0Z"/>
        <path class="cls-5" d="M560.45,368.64c5.98,0,12,0,17.99,0,.02,2.99-.04,6.01,0,9h-17.98c.02-2.99-.01-6,0-8.99Z"/>
        <path class="cls-5" d="M625.39,441.57c-.03,2.99.03,6.01,0,9h-9s-1,0-1,0c.05-2.99-.04-6.01,0-9,3.32.04,6.68-.05,10,0Z"/>
        <path class="cls-9" d="M588.43,322.68h8.99v17.98h9c.04,3.31-.06,6.67,0,9.99l-9-.99-.99-17.99h-8c-.04-2.98.06-6,0-8.99Z"/>
        <path class="cls-5" d="M431.58,350.66v8s-8.99,0-8.99,0c.02-2.99-.06-6,0-8.99,3.29.04,6.96.95,8.99,1Z"/>
        <path class="cls-5" d="M394.61,239.77c-.06,2.99.05,6,0,8.99-2.99.01-6-.02-8.99,0-.03,2.99.03,6.01,0,9h-9c.06-2.99-.04-6.01,0-9,2.99-.01,6.01.02,9,0,.03-2.99-.03-6.01,0-9,2.99-.04,6.01.06,9,0Z"/>
        <path class="cls-5" d="M385.62,340.67c.04,2.99-.06,6,0,8.99h-8.99v-8.99c2.99,0,6,0,8.99,0Z"/>
        <path class="cls-3" d="M412.6,368.64l1,1c.06.99-.09,2.01,0,3l-.98.5.98.5c.03.66-.02,1.33,0,2-1.61,3.57-5.93,1.56-9,2v-9c2.66.02,5.34-.01,8,0Z"/>
        <path class="cls-6" d="M680.34,414.6c2.93.27,6.05-.19,9,0,.05,2.66-.07,5.34,0,8h-9s0-7.99,0-7.99Z"/>
        <path class="cls-9" d="M597.42,272.73c-.03,1.33.04,2.67,0,4h-6c3.26-.9,5.05-.65,5.99-4Z"/>
        <path class="cls-9" d="M413.6,373.64l-.98-.5.98-.5c.03.33-.02.67,0,1Z"/>
        <path class="cls-9" d="M615.4,451.56c-.01-.33,0-.67,0-1h1l-1,1Z"/>
        <path class="cls-5" d="M643.37,429.58c0-.2,0-.67,0-1v1Z"/>
        <path class="cls-9" d="M413.6,369.64l-1-1,1,1Z"/>
        <path class="cls-9" d="M413.6,399.61l-.98-.5.98-.5c0,.33,0,.67,0,1Z"/>
        <path class="cls-5" d="M413.6,350.66l1-1c-.21.05-.6.82-1,1Z"/>
        <path class="cls-5" d="M533.48,606.41c2.44.08,4.91-.24,7.36.14l1.2.8.44,9.06h-9s0,8.99,0,8.99h-18.98v8.99h-18.98v7.99h-17.98c-.05-2.65.07-5.34,0-7.99-.08-3.32.06-6.67,0-9.99h17.98l.94-8.56c5.95-.9,12.06-.32,18.05-.44,2.99-.06,6.01.04,9,0v-9c3.3-.07,6.69-.1,9.99,0Z"/>
        <path class="cls-9" d="M440.57,524.49v8.99c-18.3.1-36.65-.07-54.95,0v9s-18.98,0-18.98,0v-17.98c24.63.1,49.3-.13,73.93,0Z"/>
        <path class="cls-5" d="M652.36,441.57c.04-2.99-.03-6,0-8.99h17.98v9c-5.97.08-12-.12-17.98,0-.04,2.99.03,6.01,0,9-2.99,0-6.01,0-9,0-.12,5.98.09,12.01,0,17.99h9s0,8.99,0,8.99c-2.57.16-5.68-.57-7.99,1l-1,1v8c-2.98-.02-6,.02-8.99,0s-6.12.41-9.06-.44c-1.59-1.1-.92-7.26-.93-9.55,3.32.08,6.68-.06,10,0,.04-2.99-.06-6.01,0-9,.12-5.96.12-12.03,0-17.98,2.99,0,6,0,8.99,0,.06-2.99-.04-6.01,0-9,2.99-.04,6.01.06,9,0Z"/>
        <path class="cls-9" d="M357.65,441.57c0,2.99,0,6,0,8.99h-35.96c.01-2.99,0-6,0-8.99,11.97.05,23.99-.06,35.96,0Z"/>
        <path class="cls-10" d="M430.58,413.6c.02,1.58,2.09,6.17.99,9h9s-.01,8.99-.01,8.99h9s0,9.99,0,9.99c-2.99-.02-6,.06-8.99,0-.04-2.99.03-6.01,0-9h-9c-.03-2.98.03-6,0-8.99h-9c-.05-.66.04-1.33,0-1.99-.13-2.65.09-5.35,0-8h8Z"/>
        <path class="cls-5" d="M440.57,524.49c2.19.01,18.85-.45,19,.58v8.42c-6.33.02-12.68-.04-19,0v-8.99Z"/>
        <path class="cls-5" d="M366.64,441.57c-.02,2.99-.02,6,0,8.99h9.99c.06,2.99-.04,6,0,8.99,2.99.02,6-.01,8.99,0v17.98h-9c-.04-2.98.07-6,0-8.99s.04-6,0-8.99c-3.32-.02-6.67.01-9.99,0-.06-2.99.02-6,0-8.99h-8.99c0-2.99,0-6,0-8.99,2.99.02,6-.05,8.99,0Z"/>
        <path class="cls-9" d="M404.6,450.56v8.99c-.86.04-9.69,2.58-10.01.42v-9.42c3.33-.04,6.69.06,10.01,0Z"/>
        <path class="cls-9" d="M376.63,459.55c.04,2.99-.06,6,0,8.99h-10c-.04-2.98.07-6,0-8.99,3.32.01,6.67-.02,9.99,0Z"/>
        <path class="cls-9" d="M366.64,441.57c3.32.06,6.68-.04,10,0,.04,2.99-.07,6.01,0,9h-9.99c-.02-2.99-.02-6,0-8.99Z"/>
        <path class="cls-9" d="M413.6,450.56c2.99.06,6.01-.05,9,0v9.42c-.31,2.16-8.24-.38-9-.42v-8.99Z"/>
        <path class="cls-9" d="M523.49,606.41v9c-2.98.04-6-.06-8.99,0v-9c2.98-.04,6,.07,8.99,0Z"/>
        <path class="cls-9" d="M661.35,524.49v8.99c-2.99.06-6-.06-8.99,0-.06,2.99,0,6,0,8.99-2.99.02-6,0-8.99,0,.06-2.99-.05-6.01,0-9,2.99-.04,6.01.07,9,0,.06-2.99-.05-6.01,0-9,2.99-.04,6.01.07,9,0Z"/>
        <path class="cls-5" d="M670.35,524.49c-.06,2.99.04,6.01,0,9-2.99.04-6.01-.07-9,0v8.99c-2.99.05-6-.02-8.99,0,0-2.99-.06-6,0-8.99,2.99-.06,6,.06,8.99,0v-8.99c2.99-.06,6,.02,8.99,0Z"/>
        <path class="cls-5" d="M413.6,450.56v8.99c-2.81-.17-6.17-.14-8.99,0v-8.99c2.98-.05,6.01-.06,8.99,0Z"/>
        <path class="cls-9" d="M643.37,479.53l1-1-1,1Z"/>
        <path class="cls-5" d="M551.46,588.43c2.99,0,6,0,8.99,0v17.98h-9c.09-5.97-.11-12,0-17.98Z"/>
        <path class="cls-9" d="M533.48,735.28c-.06,2.99.04,6,0,8.99-5.31.1-10.67-.07-15.98,0,1.93-.53,3.46-1.71,6-.99v-8s9.98,0,9.98,0Z"/>
        <path class="cls-10" d="M486.52,294.71c9.32.06,18.37,1.4,27.97,0,.03,2.99-.03,6.01,0,9l9,.99v16.98h-8.99c-23.71,0-50.64-1.61-73.93,0v-8.99c0-1.33-.45-8.99,0-8.99h18.98v-9c8.97.05,18-.05,26.97,0Z"/>
        <path class="cls-9" d="M514.5,321.69v9.99c-27.62.27-55.3-.2-82.92,0-.03-2.99.05-6.01,0-9,3.06.98,6.97-.86,8.99-1,23.29-1.61,50.21,0,73.93,0Z"/>
        <path class="cls-9" d="M486.52,294.71l.57-9.01h27.4c.02,3-.04,6.02,0,9.01-9.6,1.4-18.65.06-27.97,0Z"/>
        <path class="cls-9" d="M523.49,311.7l10,.99c1.02,3.03-.88,7.04-1,9l-8.99,1v-10.99Z"/>
        <path class="cls-5" d="M440.57,312.69v8.99c-2.02.14-5.93,1.98-8.99,1-.05-3.32.04-6.68,0-10h9Z"/>
        <path class="cls-5" d="M523.49,321.69v9.99c-2.99.07-6-.03-8.99,0v-9.99h8.99Z"/>
        <path class="cls-10" d="M532.48,321.69c-.17,2.64.09,5.35,0,7.99l-1,2c-2.16.39-5.55-.05-7.99,0v-8.99l8.99-1Z"/>
        <path class="cls-5" d="M531.48,331.68l1-2c0,.06.96.33.55,1.01-.39.45-.96.88-1.55.99Z"/>
        <path class="cls-13" d="M468.54,368.64h17.98c.06,2.99-.04,6,0,8.99h-17.98c-2.99,0-6,.06-8.99,0v-8.99c2.99-.06,6,0,8.99,0Z"/>
        <path class="cls-17" d="M486.52,377.63c.04,2.99-.06,6,0,8.99-5.98-.04-12.01.03-17.99,0v-9h17.99Z"/>
        <path class="cls-10" d="M532.48,413.6v10s-8.99,0-8.99,0c.09-3.32-.06-6.68,0-10,2.99-.05,6.01.07,9,0Z"/>
        <path class="cls-9" d="M496.52,386.62l-.94,8.56-9.06.44c-.04-2.99.07-6.01,0-9,3.32.02,6.67.05,9.99,0Z"/>
        <path class="cls-9" d="M514.5,358.65c2.99.02,6.01-.02,9,0,.03,2.99-.05,6.01,0,9h-9s0-8.99,0-8.99Z"/>
        <path class="cls-9" d="M514.5,377.63l-.93,8.56c-2.61.88-5.39.35-8.06.44v-9c2.98-.02,6,.04,8.99,0Z"/>
        <path class="cls-10" d="M339.67,386.62c-.02,2.99.06,6,0,8.99h-8.99c0-2.99,0-6.01,0-9,2.99-.04,6.01.06,9,0Z"/>
        <path class="cls-9" d="M339.67,395.61c-.06,2.99.05,6.01,0,9h-8.42c-1.04-.14-.58-7.37-.57-9h8.99Z"/>
        <path class="cls-19" d="M468.54,368.64l.57-9.01h17.41c.04,3-.07,6.02,0,9.01h-17.98Z"/>
      </g>
    </g>
    <g>
      <path class="cls-13" d="M394.61,772.25c2.99,0,6.01,0,9,0v9s9.99-.01,9.99-.01c.02,2.99-.04,6.01,0,9s-.03,6,0,8.99h35.47c2.75.92-1.4,9.99,2,9.99h17.48v9s8.99,0,8.99,0c0,2.99.02,6,0,8.99s.05,6,0,8.99h-9s.01,9,.01,9l-9.56.93.56,45.03h-9s0,132.87,0,132.87h-83.92v-95.91s9.99,0,9.99,0v-54.95h9c.01-8.97-.03-18,0-26.97h9s.01-9.42.01-9.42l-9.01-.58c-.02-12.31,0-24.66,0-36.97-2.99-.05-6.01.08-9,0,.04-5.98-.02-12.01,0-17.99h9c.05-2.98-.08-6,0-8.99,2.99,0,6,0,8.99,0Z"/>
      <path class="cls-10" d="M477.53,836.18c-.06,3.32.04,6.68,0,10h-9c-.04,2.98.06,6,0,8.99-.3,15.28.03,30.67,0,45.96h-9c0,36.94,0,73.94,0,110.89v11.99h-8.99v-132.88s9,.01,9,.01l-.56-45.03,9.56-.93v-9s8.99,0,8.99,0Z"/>
      <rect class="cls-19" x="459.55" y="1012.01" width="8.99" height="11.99"/>
      <path class="cls-21" d="M828.19,689.33c17.97.06,35.98-.04,53.95,0v9s8.99,0,8.99,0v17.98h9c.38,6.17-.53,12.89,0,18.98-2.99,0-6,0-8.99,0-.02-2.99.02-6.01,0-9-2.99-.04-6.01.06-9,0-.06-2.99.05-6.01,0-9l-26.34-.13-1.5-1.5-.13-7.36c-6.02-.25-11.95-.78-17.99-.99-.08-2.18.68-7.44-.93-8.56-2.61-.87-5.38-.36-8.06-.44-.07-2.66.05-5.33,0-7.99l1-1Z"/>
      <path class="cls-12" d="M413.6,790.23h63.94c.01,9.31-.03,18.66,0,27.97h-9s0-8.99,0-8.99h-17.48c-3.4,0,.75-9.07-2-9.99h-35.47c-.03-2.99.04-6,0-8.99Z"/>
      <path class="cls-5" d="M440.57,744.27c.01,2.99-.02,6,0,8.99h-17.99s-.01-8.42-.01-8.42c.15-1.03,15.86-.56,18-.58Z"/>
      <path class="cls-19" d="M394.61,762.26v9.99c-2.99,0-6,0-8.99,0,.09-3.32-.06-6.68,0-10h9Z"/>
      <path class="cls-2" d="M385.62,836.18l9.01.58v9.42s-9.01,0-9.01,0c.01-3.32,0-6.67,0-9.99Z"/>
      <g>
        <polygon class="cls-10" points="643.37 1012.01 643.37 1021 643.37 1024 634.38 1024 634.38 1012.01 643.37 1012.01"/>
        <path class="cls-10" d="M321.69,515.5h9s-.01,35.97-.01,35.97h9s0,17.98,0,17.98h9c.03,6.31-.06,12.67,0,18.98,2.99.04,6.01-.03,9,0,.02,5.98-.04,12.01,0,17.99,2.12.1,9.28-.94,9.87,1.58l.11,26.4h8s0,7.99,0,7.99l1,1c.23,1.6-.33,7.68,0,8l54.96.99v9s8.99,0,8.99,0v45.96h8.99c.05,2.61-.23,5.47,0,7.99.08.89-.26,1.88,1,2h9c-.09,5.97.11,12,0,17.98h-10c-.04,2.98.06,6,0,8.99-2.99.05-6-.02-8.99,0-2.14.01-17.85-.45-18,.58v8.42s18,0,18,0c.02,2.99-.02,6.01,0,9,2.99.04,6.01-.06,9,0,15.63.31,31.33-.23,46.96,0v-9c5.97-.02,12,.04,17.98,0,0-2.97-.1-5.98.07-8.95.91-.33,2.17.16,2.92-.04,5.31-.07,10.67.1,15.98,0,.04-2.99-.06-6,0-8.99s-.05-6.01,0-9c2.32-.05,4.67.07,7,0,3.65-.11,7.34.08,10.99,0,.03-2.99-.03-6.01,0-9,2.99-.02,6.01.04,9,0,.09-3.32-.06-6.68,0-10h9s-.01-8.99-.01-8.99c2.99-.02,6.01.04,9,0,.08-2.99-.06-6.01,0-9,2.99-.05,6.01.07,9,0v9c-2.98.02-6-.04-8.99,0-.09,3.32.06,6.68,0,10h-9s.01,8.99.01,8.99c-2.99.02-6.01-.04-9,0-.08,2.99.06,6.01,0,9-2.99.04-6.01-.07-9,0-.03,2.99.03,6.01,0,9h-9s.01,8.99.01,8.99c-2.99.04-6.01-.06-9,0-.04,2.99.06,6,0,8.99-6.31.04-12.67-.04-18.98,0,0,1.63-.47,8.85.57,9.01h18.41c.04-3-.07-6.02,0-9.01,5.98-.04,12.01.03,17.99,0v-9s8.99.01,8.99.01v-9s17.98,0,17.98,0v-9s10,.01,10,.01v-10s100.9,0,100.9,0v-9s9,0,9,0l.43,9.06,8.55.94v-18.98h-17.98v-8.99h-18.98v-8.99h27.97l.58,9.01h8.42s0-9.01,0-9.01h27.97v-10s8.99,0,8.99,0v-17.98l9.57-.97-.58-8.03h9s0-44.95,0-44.95h-26.97v8s8.99,0,8.99,0v18.98h-27.97v8.99h-26.97v9s-9-.01-9-.01v9s-27.97,0-27.97,0v8.99h-17.98v9.99h-18.98v9c-5.97.08-12-.12-17.98,0-.08,2.99.06,6.01,0,9-2.99.05-6.01-.07-9,0v-9c2.98-.04,6,.06,8.99,0,.09-3.32-.06-6.68,0-10,2.99-.02,6.01.04,9,0s6.01.03,9,0v-63.37c-.14-1.06-7.36-.56-9-.57,0-24.27.47-48.67,0-72.93h8.99c.02,2.99-.06,6,0,8.99s-.05,6.01,0,9c9.31.12,18.67-.18,27.98,0-.06-2.98-.06-6.01,0-8.99,2.99,0,6,.02,8.99,0v8.99c-2.98-.12-6.01.06-8.99,0,.06,2.99-.05,6.01,0,8.99h26.47c2.8,1.25.86,8.37,1.49,9l26.98.99.1,7.89,36.86,1.1v8c-2.49.33-5.7,1.87-9,.99v9s9,0,9,0c-.87-3.3.66-6.51.99-9h25.98s-.01,9-.01,9h10c.21,23.95-.3,47.97,0,71.92,0,.33,0,.67,0,1s0,.67,0,1c.07,2.99-.05,6.01,0,9h9s-.01,8.99-.01,8.99c2.99.04,6.01-.07,9,0l.94,9.55,18.05-.56c.04-2.99-.06-6.01,0-8.99,5.65.02,11.34-.01,16.98,0,.33,0,.67,0,1,0v1c.05,2.66-.07,5.34,0,7.99-2.99-.08-6.01.05-9,0v18.41c.13.99,7.52.65,9,.57v17.99s8.99,0,8.99,0c0,2.99,0,6.01,0,9h9s0,17.98,0,17.98h9s-.01,10-.01,10c2.99.04,6.01-.06,9,0v36.96l-7.35-.92c-2.83.87-1.3,7.52-1.64,9.92,2.99.05,6.01-.08,9,0,3.32.09,6.68-.06,10,0v9s8.99-.01,8.99-.01v9c2.98.04,6-.06,8.99,0l.05,8.94c3,.42,5.88.89,8.94,1.05.65,5.48-.9,12.8,0,17.98.07.43-.09.81.51.98.28-.01.4-.97.49-.98,2.85-.3,6.08.21,9,0v9s8.99-.01,8.99-.01v9s8.99-.01,8.99-.01c.04,3.32-.06,6.68,0,10,.05,2.75-.76,26.79.58,26.99h8.42c.01-8.99-.03-18.01,0-26.99,0-2.99-.01-6,0-8.99h8.99c-.22,5.59-.79,32.19.95,35.32l9.04.64v17.98c3.01.28,6.86-1.11,8.99,1.5v17.48h8.99v17.98l9,.99v17.99s8.55.93,8.55.93c.9,5.95.32,12.06.44,18.05,2.99.03,6.01-.03,9,0,0,2.99,0,6.01,0,9h-9c-.04-2.98.06-6,0-8.99-2.99-.03-6.01.03-9,0l-.99-10h-17.98v-9s9,.01,9,.01v-9s-8.56-.93-8.56-.93l-.43-9.06h-8s-1.04-17.92-1.04-17.92l-8.94-.05v-17.98h-8.99v17.98h-8.99v-26.47c-1.25-2.8-8.37-.86-9-1.49l-.99-26.98h-9s0-17.98,0-17.98l-17.97-1.01v-8.98h-17.99v-9s8.99,0,8.99,0v-15.98l-8.56-1.93c-1.59-2.21,1.17-8.09-1.93-10.06h-17.48v-8.99h-26.97v-9s-9,.01-9,.01v-9s-8.99.01-8.99.01l-.93-9.56c-12.05-.86-24.25-1.09-36.02,1.56.04-3.65-.08-7.34,0-10.99,2.99-.02,6.01.02,9,0,0-2.99,0-6.01,0-9s0-6.01,0-9c-15.3-.21-30.67.3-45.96,0v-10c-2.98-.04-6,.06-8.99,0-9.15-.18-18.85-.32-27.97,0-6.04.21-11.93,1.23-17.99.99,0,2.99,0,6.01,0,9-3.32.05-6.68-.04-10,0v9s-8.99,0-8.99,0v17.98l-8.85,1.14c-.34,5.92-.05,11.91-.14,17.84-2.99.03-6.01-.03-9,0-.02,6.31.04,12.67,0,18.99-.04,5.98.12,12.01,0,17.98h-9c-.04,2.98.06,6,0,8.99-3.32.05-6.67-.04-9.99,0v-18.98l-17.01.42-.97,9.57h-17.98v9s-10-.01-10-.01v9s-17.98,0-17.98,0v10s9-.01,9-.01l.43,7.06,8.12,1.87,1.37,8.62,18.05-.57v9s17.98,0,17.98,0v9.99h18.98c.04,2.99-.06,6.01,0,8.99.24,12.29-.03,24.67,0,36.96,0,2.99,0,6,0,8.99v37.96c-1.39,0-9.99.5-9.99,0v-83.92h-17.98v-8.99h-27.97v-9s-9,.01-9,.01v-9s-17.98,0-17.98,0v-9s-45.96-1-45.96-1v132.88s-27.97,0-27.97,0c-.02-28.62.02-57.29,0-85.92-.02-24.6.48-49.34,0-73.93,2.96-2.1,8.65,1.56,10.54-.96s-3.52-4.58-1.55-8.04c3.48.34,10.55-1.51,11.81,2.7,1.62,5.44-7.43,8.48-11.56,10.54l-5.23,11.17c5.92,5.72,14.72.17,21.97,1.56v-15.48l1.5-1.5h41.46v-7c3.74,1.66,5.32-1.89,5.68-1.97,1.76-.42,7.9.4,8.31-.02v-10s8.99,0,8.99,0c1.18-7.23-2.51-8.5-9-7.99v-10s-45.95,0-45.95,0v-9s-9.1-.58-9.1-.58c-2.23-5.99,1.14-12.11.11-18.4h-17.98v27.97h8s0,9,0,9h-8.42s-.57-9-.57-9h-9c.02-2.98,0-6,0-8.99-.03-9.31.02-18.67,0-27.98h-63.94c-.04-2.98.03-6,0-8.99h-10s.01-8.99.01-8.99c-2.99,0-6.01,0-9,0v-9.99c0-5.98,0-12,0-17.99h9s0-8.99,0-8.99h-17.98v9c-2.98.05-6.01-.08-8.99,0-3.32.09-6.68-.06-10,0-.02,5.98.04,12.01,0,17.99-.08,12.31.06,24.66,0,36.97,3.32.06,6.68-.09,10,0-.09,15.3.25,30.66,0,45.96l-9.06.44-.93,9.56h-9s0,17.98,0,17.98c-2.99.04-6.01-.03-9,0v138.87s-8.99,0-8.99,0v-18.98c0-33.93-1.04-68.11-1-101.9,0-.66,1.04-2.53,1.04-4.42.04-13.85-.11-27.71-.05-41.54h9s0-35.96,0-35.96c-2.98-.08-6.01.11-8.99,0,.02-9.31-.02-18.67,0-27.98h-9v26.48c2.08,2.48,5.97,1.38,8.99,1.5-.02,8.98.01,18,0,26.98h-9c-.02,17.63.04,35.31,0,52.94-.06,28.29,0,56.63,0,84.92h-9s0-109.89,0-109.89h-27.97v-8.99h-17.98v27.97h-9s-1,63.94-1,63.94l8.33-.05c5.39,4.56-6.98,18.12-3.34,20.53,1.24.82,3.92.14,5,2v23.48h9c.08,6.31-.13,12.67,0,18.98,2.99.06,6.01-.04,9,0v9s-9,0-9,0c-.04-2.99.06-6.01,0-9-3-.06-6.11.43-9.06-.44l-.93-9.55h-26.47c-3.11,1.97,1.14,4.92-1.48,7.52-2.28,2.25-5.28.32-8,.48v13.99h-45.96c-.12-3.46-.62-2.78,2.46-3.01,5.2-.39,10.27,1.79,15.53,1.02.04-3.32-.06-6.67,0-9.99,2.99.08,6.01-.05,9,0,.02-6.31-.04-12.67,0-18.99,2.99-.03,6.01.03,9,0,.04-12.31-.07-24.66,0-36.97,3.32-.09,6.68.06,10,0,.05-6.31-.08-12.67,0-18.99.04-2.99-.06-6,0-8.99l8.99,1c.05-3.32-.05-6.67,0-9.99.2-11.96,0-24,0-35.96h9c0-6.31,0-12.67,0-18.98,2.99-.06,6.01.05,9,0,.02-6.31-.04-12.67,0-18.99,3.32-.06,6.68.04,10,0,0-11.98,0-23.99,0-35.97,2.99-.08,6.01.06,9,0,.04-3.32-.06-6.68,0-10,.05-2.99-.02-6,0-8.99,2.99-.06,6.01.04,9,0,.04-2.99-.07-6.01,0-9s0-6,0-8.99c2.99-.03,6.01.03,9,0,.06-3.32-.09-6.68,0-10,.08-2.99-.06-6.01,0-9h9s0-8.99,0-8.99h-26.97v9c-9.3.12-18.67-.18-27.97,0,0,2.99,0,6,0,8.99-2.11.17-5.87,1.99-9,.99v9c-2.98.02-6-.04-8.99,0s-6.01-.03-9,0c-.02,2.99.04,6.01,0,9-3.32.07-6.67-.02-9.99,0,0,2.99.06,6,0,8.99-2.99.08-6.01-.06-9,0-.04,2.99.07,6.01,0,9,0,.33,0,.67,0,1-1.8.2-8.99-2.29-8.99.5v26.47h-8.99v27.97c2.99.03,6-.04,8.99,0-.04,5.98,0,12,0,17.98-2.99.03-6.01-.03-9,0-.02,5.98.04,12.01,0,17.99,0,.33,0,.67,0,1h-9s-1.03,43.45-1.03,43.45c-.19,2.08.14,1.31,1.5,1.52,2.59.39,5.83-.28,8.53,0-.08,6.97.19,14.01,0,20.98-.06,2.32.1,4.67,0,6.99,0,.13-.97,1.13-1.04,2.42-.28,5.15.28,10.42.05,15.57h-9v-44.96h-8.99v-36.96h-9c.14-12.3-.17-24.66,0-36.96,2.99-.06,6.01.04,9,0v-18.99s-8.56.94-8.56.94c-.88,5.95-.35,12.06-.44,18.05-5.98.12-12.01-.08-17.99,0v9s-8.99,0-8.99,0v17.48c-1.26,2.8-8.36.86-9,1.49v9s-8.99,0-8.99,0v17.98c-3.32.06-6.67-.09-9.99,0-.08,5.98.06,12.01,0,17.99-2.99.02-6.01-.04-9,0-.06,9.31.04,18.67,0,27.98h-10s.57,18.04.57,18.04l-8.55.94v27.97h-9s0,11.99,0,11.99h-9.99v-21.98s8.99,0,8.99,0v-27.97h8.99v-17.98l8.94-.05,1.04-18.93c2.99-.02,6.01.04,9,0,.04-5.98-.02-12.01,0-17.99,2.99-.05,6.01.08,9,0,.08-5.98-.06-12.01,0-17.99l9-1v-17.98h9s-.01-9-.01-9h9s0-24.47,0-24.47c0-.27,1.18-3.43,1.62-3.56l8.37.06v-16.98l8.85-1.14.13-8.85h9s0-8.98,0-8.98l8.93-1.06.05-8.95h9s-.01-8.99-.01-8.99h10s-.01-8.99-.01-8.99c2.99-.04,6.01.07,9,0s6,.02,8.99,0,6,.02,8.99,0v-8.99c2.15-.18,5.85-1.98,9-.99v-9s18.98.01,18.98.01c.03-1.66-.04-3.34,0-5,.03-1.33-.04-2.67,0-4,2.99-.04,6.01.06,9,0,0-2.99,0-6.01,0-9l26.36.07,1.61-9.05h17.98c.03-2.99-.04-6,0-8.99h9c.04-3.31-.06-6.67,0-9.99.2-11.97-.14-24,0-35.97l9.06-.43.93-9.56h9s-.01-8.99-.01-8.99h9s0-17.98,0-17.98c5.26-.3,10.76.41,15.98,0,.99-.08,2.01.06,2.99,0,.66-1.49-.94-2.63-.99-2.99-.13-.93.03-2.02,0-3l9-.5c.73-5.5-5.98-2.91-9-2.49-.17-9.3.06-18.67,0-27.97-2.98-.14-6.02.1-9,0-.03-5.98.05-12.01,0-17.99-2.99-.04-6,.03-8.99,0v-17.98h-8.99v-17.98h-9c-.94-11.18-1.19-22.33-1.07-33.59.02-1.84,1.07-3.2,1.07-3.38ZM643.37,791.23h-17.98l-.94,8.55-9.06.43-.11,7.89-8.89,1.1v8.99h17.49c2.8-1.26.86-8.36,1.49-9h9s-.01-9.99-.01-9.99h9s0-7.99,0-7.99Z"/>
        <path class="cls-6" d="M781.24,781.24c0,2.99,0,6.01,0,9-2.99.01-6.01-.02-9,0-.08,3.65.05,7.34,0,10.99,11.78-2.66,23.97-2.43,36.02-1.56l.93,9.56h9s-.01,8.99-.01,8.99h9s0,8.99,0,8.99h26.97v8.99h17.48c3.1,1.97.34,7.85,1.93,10.06l8.56,1.93v15.98h-9s0,8.99,0,8.99h17.98v8.98s17.98,1.01,17.98,1.01v17.98h9s.99,26.98.99,26.98c.63.63,7.74-1.31,9,1.49v26.47h8.99v-17.98h8.99v17.98l8.94.05,1.04,17.93h8s.43,9.05.43,9.05l8.56.93v9s-9-.01-9-.01v9h17.99l.99,10c2.99.02,6.01-.04,9,0,.06,2.99-.04,6.01,0,9h9s0,2.99,0,2.99h-200.8v-20.98s8.99,0,8.99,0v-27.97c3.01-.28,6.86,1.11,8.99-1.5v-26.47h8.99v-36.96h8.99v-17.48c0-2.8,7.22-.28,8.99-.5v-18.98h9s-.01-9-.01-9h10s0-8.99,0-8.99h-10c-.71-.7,1.41-8.63-1.49-9.99h-16.48v10s-8.99,0-8.99,0v36.96h-8.99v26.97h-8.99v35.47c-1.26,2.8-8.36.86-9,1.49l-.99,36.97h-9s0,27.97,0,27.97c-5.08.29-10.49-.4-15.53,0-3.07.24-2.57-.49-2.45,3h-36.96v-30.97s-9,.01-9,.01c-.05-14.82.07-29.67.05-44.5,0-7.16-.24-13.68,0-20.9.19-5.82-.23-11.71-.05-17.53h9s0-27.97,0-27.97h-8.99c.05-2.99-.02-6,0-8.99.06-11.96-.09-23.96.05-35.92,2.98-.48,5.92-.81,8.94-1.05s6.03.17,9,0c.04-2.99-.06-6.01,0-9,.12-5.98-.08-12.01,0-17.99h9s-.01-9.99-.01-9.99h10c-.15-2.96.21-6.03,0-8.99,2.99-.01,6,.02,8.99,0,.06-2.99-.05-6.01,0-9h9Z"/>
        <path class="cls-6" d="M643.37,993.03c.02,2.99,0,6,0,8.99,0,3.32,0,6.67,0,9.99h-8.99v-18.98h8.99Z"/>
        <path class="cls-6" d="M505.51,1024v-132.88s45.96,1,45.96,1v9s17.98,0,17.98,0v9s9-.01,9-.01v9s27.97,0,27.97,0v8.99h17.98v83.92c0,.5,8.6,0,9.99,0v11.99h-128.87Z"/>
        <path class="cls-10" d="M772.25,1024c-.12-3.49-.62-2.76,2.45-3,5.05-.4,10.45.29,15.53,0v-27.97h9s.99-36.97.99-36.97c.63-.63,7.74,1.31,9-1.49v-35.47h8.99v-26.97h8.99v-36.96h9s0-9.99,0-9.99h16.48c2.9,1.36.78,9.29,1.49,10h10s0,8.99,0,8.99h-10s.01,8.99.01,8.99h-9s0,18.98,0,18.98c-1.77.22-8.99-2.3-8.99.5v17.48h-8.99v36.96h-8.99v26.47c-2.13,2.61-5.98,1.22-8.99,1.5v27.97h-9s0,20.98,0,20.98h-27.97Z"/>
        <path class="cls-10" d="M726.29,882.14h8.99v27.97h-9c-.18,5.81.25,11.7.05,17.52-.24,7.22,0,13.74,0,20.9.01,14.83-.1,29.68-.05,44.5h9s0,30.96,0,30.96h-18.98v-11.99s-9,.01-9,.01c-.02-15.64.04-31.32,0-46.96s-.06-30.65,0-45.96c.02-5.98-.03-12,0-17.98,2.98.1,6.01-.07,9,0,.04-2.99-.07-6.01,0-9,3.32,0,6.67,0,10,0,.05-2.99-.07-6.01,0-9,0-.33,0-.67,0-1Z"/>
        <path class="cls-13" d="M634.38,965.06h26.98s0,8.99,0,8.99h36.96v27.97h-9s0,21.98,0,21.98h-36.96v-3c0-6.32,0-12.67,0-18.99h-9c0-2.99.02-6,0-8.99-.04-6.31.03-12.67,0-18.99h-9c0-2.99,0-6,0-8.99Z"/>
        <path class="cls-19" d="M643.37,928.09c.06,2.99-.04,6.01,0,9h9s-.01,9.99-.01,9.99h9s0,8.99,0,8.99h18.98v-9s9,.01,9,.01c0-5.98,0-12.01,0-17.99h8.99c0,11.98,0,23.99,0,35.97h9c.04,15.63-.02,31.32,0,46.95h9s0,11.98,0,11.98h-26.97v-21.98s8.99,0,8.99,0v-27.97h-36.96v-9s-26.97,0-26.97,0c-.03-12.3.24-24.67,0-36.96h8.99Z"/>
        <path class="cls-6" d="M477.53,938.08c.02,28.62-.02,57.29,0,85.92h-8.99v-11.99c0-24.96,0-49.97,0-74.93l8.99,1Z"/>
        <rect class="cls-6" x="643.37" y="1021" width="8.99" height="3"/>
        <path class="cls-10" d="M836.18,707.31c6.04.21,11.96.75,17.99.99l.13,7.36,1.5,1.5,26.34.13c.04,2.99-.07,6.01,0,9,2.99.06,6.01-.04,9,0,.01,2.99-.02,6.01,0,9,2.99,0,6,0,8.99,0,.15,1.71,1.87,5.09,1.1,7.89l8.89,1.09v9s8.99,0,8.99,0l.43,8.06,9.12,1.87.43,8.06,8.56.93c.86,1.25.52,7.03.44,9.06-.52,12.27-1,24.49-1,36.96h-8.99c.02,5.98-.12,12.01,0,17.98.06,2.99-.04,6.01,0,9h9c.01,9.3-.03,18.66,0,27.97-2.99-.06-6.01.04-9,0v-17.99c-2.98-.04-6,.06-8.99,0v-9.99c0-8.97-.11-18,0-26.97,2.99,0,6,0,8.99,0,0-2.99.01-6,0-8.99-.03-9.3.18-18.67,0-27.97-.06-2.99.04-6.01,0-9h-9c-.04-2.98.05-5.99,0-8.98-3.36-.15-6.62-.74-9.98-1.01v-9s-8.99,0-8.99,0c-.24-2.96.17-6.03,0-9-2.99-.02-6.01.04-9,0-.01-2.99.02-6,0-8.99h-8.99c-.06-2.99.06-6,0-8.99-9.29-.18-18.68-.06-27.97,0-2.99.02-6-.06-8.99,0l-.05-8.94c-3.04-.37-5.84-.96-8.94-1.05-.07-2.99.11-6.01,0-8.99Z"/>
        <path class="cls-2" d="M779.24,670.35c.17,9.11,10.35,8.02,14.97,11.51,2.26,1.71,2.93,6,5.02,6.47v1c-2.99-.02-6,.06-8.99,0s-6.01.05-9,0v-9s-8.99.01-8.99.01c-.05-2.99.07-6.01,0-9,.8.09,1-.24,1-1h5.99Z"/>
        <path class="cls-6" d="M736.28,588.43c-.33,2.48-1.87,5.69-.99,9h-9s0-9,0-9c3.3.87,6.51-.66,9-.99.74-.1,1.1.26,1,1Z"/>
        <path class="cls-13" d="M680.34,781.24c27.27-.54,54.65.41,81.92,0-1.01,3.09.85,6.96.99,9,.21,2.96-.15,6.03,0,9h-10s.01,9.99.01,9.99h-9c-.08,5.97.12,12,0,17.98h-9s0,8.99,0,8.99c-3.02.24-5.95.57-8.94,1.05-.14,11.95,0,23.96-.05,35.92h-10c-.04,2.98.07,6,0,8.99-2.98-.12-6.01.08-9,0-.04,3.32.06,6.68,0,10-.05,2.99.02,6,0,8.99-3.67-.12-7.45-1.09-10.49-1.08-4.92,0-11.06,2.14-16.49,1.08,0,2.99,0,6.01,0,9-6.31,0-12.67-.01-18.98,0,.03,2.99-.03,6.01,0,9,6.31.02,12.67-.04,18.99,0,2.99.02,6,0,8.99,0v9.99c0,5.98,0,12.01,0,17.99h-9s0,8.99,0,8.99h-18.98v-9s-9,.01-9,.01v-10s-8.99.01-8.99.01c-.04-2.99.06-6.01,0-9-.12-5.98.09-12.01,0-17.99,2.99-.04,6.01.07,9,0s6,0,8.99,0c-.03-2.99.03-6.01,0-9-2.99-.02-6.01.04-9,0-2.99-.04-6,.03-8.99,0v-17.98h-9c.1-6.31-.12-12.67,0-18.98,2.99-.05,6.01.04,9,0,.04-2.99-.06-6.01,0-9,.12-5.98-.04-12,0-17.98h9c.06-6.31-.1-12.67,0-18.98,2.99-.03,6.01.03,9,0v-17.99s9.99-.99,9.99-.99v-17.98c2.99-.04,6.01.06,8.99,0Z"/>
        <path class="cls-6" d="M597.42,680.34c5.98-.12,12.01.08,17.99,0v-9s18.98,0,18.98,0v-9.99h17.98v-8.99h27.97v-9s9,.01,9,.01v-9s26.97,0,26.97,0v-8.99h27.97v-18.98h-9s0-7.99,0-7.99h26.97v44.96h-9s.58,8.02.58,8.02l-9.57.97v17.98h-9s0,9.99,0,9.99h-27.97v9s-8.42.01-8.42.01l-.58-9.01h-27.97v8.99h18.98v8.99h17.98v18.98l-8.55-.94-.43-9.06h-9s0,9,0,9h-100.9v10s-10-.01-10-.01v9s-17.98,0-17.98,0v9s-9-.01-9-.01v9c-5.97.02-12-.04-17.98,0-.06,2.99.05,6.01,0,9h-18.41c-1.04-.14-.58-7.37-.57-9,6.31-.04,12.67.04,18.98,0,.06-2.99-.04-6,0-8.99,2.99-.06,6.01.04,9,0v-9s8.99.01,8.99.01c.02-2.99-.04-6.01,0-9,2.99-.06,6.01.05,9,0,.05-2.99-.08-6.01,0-9,2.99-.03,6.01.03,9,0v-9s8.99.01,8.99.01c.06-3.32-.09-6.68,0-10,2.99-.03,6.01.03,9,0v-9c.33,0,.66,0,.99,0,2.99-.07,6.01.05,9,0,.05-2.99-.08-6.01,0-9Z"/>
        <path class="cls-13" d="M845.17,726.29c2.99-.06,6,.02,8.99,0v9c9.31,0,18.66,0,27.97,0,.06,2.99-.05,6.01,0,9,2.99.02,6.01-.04,9,0s6.01-.03,9,0c.17,2.97-.24,6.04,0,9s.57,5.95,1.05,8.94c2.62.29,5.33-.16,7.94.05,3.36.27,6.62.86,9.98,1.01.06,2.98-.03,6,0,8.98s-.03,6.01,0,9h9c.18,9.29-.03,18.67,0,27.97l-8.98-1c-.04,3.32.04,6.67,0,9.99-6.32,0-12.67,0-18.99,0v-9s-8.99.01-8.99.01v-10s-8.99,0-8.99,0v-27.97c-6.35.64-12.57,1.12-18.98,1-2.99-.06-6.01.04-9,0v-10s-8.99,0-8.99,0v-17.98h-9c0-2.98,0-6,0-8.99s0-6.01,0-9c2.99-.04,6.01.07,9,0Z"/>
        <path class="cls-6" d="M477.53,827.19h9s.57,9.01.57,9.01h8.42s0-9.01,0-9.01h-8s0-27.97,0-27.97h17.98c1.03,6.29-2.34,12.41-.11,18.4l9.11.58v9s45.95,0,45.95,0v10c6.48-.5,10.18.76,9,7.99h-9s.01,9.99.01,9.99c-.41.42-6.55-.41-8.31.02-.36.09-1.94,3.63-5.69,1.97v7s-41.45,0-41.45,0l-1.5,1.5v15.48c-7.25-1.4-16.05,4.15-21.97-1.56l5.23-11.17c4.13-2.06,13.19-5.1,11.56-10.54-1.26-4.21-8.34-2.36-11.81-2.7-1.97,3.46,3.35,5.63,1.55,8.04s-7.57-1.15-10.54.96c-.06-2.99.04-6.01,0-9h-9c.06-2.98-.04-6,0-8.99h9c.04-3.31-.06-6.67,0-9.99.05-2.99-.02-6,0-8.99Z"/>
        <path class="cls-6" d="M634.38,928.09c-.06-2.99.04-6.01,0-8.99h-18.98v-9.99h-17.98v-9s-18.05.57-18.05.57l-1.37-8.62-8.12-1.87-.43-7.06h-9s0-9.99,0-9.99h17.98v-9s10,.01,10,.01v-9s17.98,0,17.98,0l.97-9.57,17.01-.42v18.98c3.32-.04,6.67.05,9.99,0,.06-2.99-.04-6.01,0-9h9c-.06,2.99.04,6.01,0,9-2.99.03-6.01-.05-9,0-.12,6.31.09,12.67,0,18.99h9s0,17.98,0,17.98c2.99.03,6-.04,8.99,0v8.99c-2.99.06-6.01-.05-9,0,.09,5.98-.11,12.01,0,17.99h-8.99Z"/>
        <path class="cls-19" d="M863.16,772.25c6.41.13,12.63-.35,18.98-1v27.97h9s-.01,10-.01,10h9s-.01,8.99-.01,8.99c6.32,0,12.67,0,18.99,0,.04-3.32-.04-6.67,0-9.99l8.98,1c.01,2.99,0,6,0,8.99-2.99,0-6,0-8.99,0-.11,8.97,0,18,0,26.97-2.96.18-6.06-.26-8.99,0l-.94-8.56c-5.95-.9-12.06-.32-18.05-.44-2.99-.06-6.01.04-9,0v-9s-8.99.01-8.99.01v-9c-3.31-.06-6.67.09-9.99,0v-45.96Z"/>
        <path class="cls-19" d="M726.29,762.26v10c2.98.04,6-.06,8.99,0,15.29.3,30.66-.22,45.96,0,0,2.99,0,6.01,0,9h-9c-.04,2.98.07,6,0,8.99-2.99.02-6-.01-8.99,0-.15-2.04-2.01-5.91-.99-9-27.28.41-54.65-.53-81.92,0,0-2.99,0-6,0-8.99,5.98-.1,12.01.07,17.99,0v-10c9.12-.32,18.82-.18,27.97,0Z"/>
        <path class="cls-19" d="M909.11,846.17l.93,8.56c2.94.87,6.05.38,9.06.44s6.01-.04,9,0v17.99c2.98.04,6-.06,8.99,0,0,3.32.01,6.67,0,9.99-.01,2.99,0,6,0,8.99h-8.99c-.05-3.32.04-6.68,0-10h-9s.01-8.99.01-8.99h-9s.01-8.99.01-8.99c-2.92.22-6.14-.3-9,0h-1c-.9-5.18.65-12.51,0-17.98,2.8.15,6.21.19,8.99,0Z"/>
        <path class="cls-12" d="M468.54,855.16h9c.04,2.98-.06,6,0,8.99.48,24.59-.02,49.33,0,73.93l-8.99-1c0-11.97-.02-23.99,0-35.96.03-15.29-.3-30.67,0-45.96Z"/>
        <path class="cls-6" d="M643.37,791.23v8s-9-.01-9-.01v10s-8.99,0-8.99,0c-.63.63,1.31,7.74-1.49,9h-17.48v-8.99s8.88-1.1,8.88-1.1l.11-7.89,9.06-.43.94-8.55h17.98Z"/>
        <path class="cls-6" d="M698.32,762.26v10c-5.97.06-12-.1-17.98,0,0,2.99,0,6,0,8.99-2.99.06-6.01-.04-8.99,0v17.98l-10,.99v17.99c-2.98.02-6-.04-8.99,0-.1,6.31.07,12.67,0,18.99h-9c.04-6.32-.02-12.68,0-18.99,2.99-.02,6.01.04,9,0,.09-5.93-.2-11.92.14-17.84l8.85-1.14v-17.98h9s-.01-9-.01-9c3.32-.04,6.68.06,10,0,0-2.99,0-6.01,0-9,6.05.23,11.95-.78,17.99-.99Z"/>
        <path class="cls-19" d="M836.18,716.3c3.1.09,5.9.68,8.94,1.05l.05,8.94c-2.99.06-6.01-.05-9,0,0,2.99,0,6.01,0,9h-9s0-17.98,0-17.98c2.69-.14,5.34-1.1,8.99-1Z"/>
        <path class="cls-6" d="M827.19,698.32c.08,2.99-.06,6.01,0,9,2.98.07,6.01-.11,9,0,.11,2.98-.07,6,0,8.99-3.65-.1-6.3.86-8.99,1-1.48.08-8.86.41-9.01-.57v-18.41c3,.06,6.02-.07,9.01,0Z"/>
        <path class="cls-6" d="M937.08,892.13c-.03,8.98.02,18,0,26.98h-8.42c-1.33-.19-.53-24.23-.58-26.98h8.99Z"/>
        <path class="cls-12" d="M910.11,845.17c-.25.02-.73.98-1,1-2.78.19-6.19.15-8.99,0-3.05-.16-5.93-.63-8.94-1.05l-.05-8.94c5.99.12,12.09-.47,18.05.44l.94,8.56Z"/>
        <path class="cls-19" d="M799.22,689.33c2.66.02,5.33,0,7.99,0,.67,0,1.33,0,2,0-.06,2.99.04,6.01,0,8.99l-18.05.56-.94-9.55c2.99.06,6-.02,8.99,0Z"/>
        <path class="cls-19" d="M634.38,974.05h9c.02,6.31-.04,12.67,0,18.98h-8.99v-18.98Z"/>
        <path class="cls-6" d="M946.08,883.14h-8.99c.01-3.32,0-6.67,0-9.99,2.28.04,8.43-.68,9.55.94,1.87,2.97-.49,7.24-.56,9.05Z"/>
        <path class="cls-6" d="M726.29,762.26c2.99.06,6.01-.04,9,0v10c-2.99-.06-6.01.04-9,0v-10Z"/>
        <path class="cls-6" d="M863.16,809.21v8.99c-2.99-.08-6.01.06-9,0,.34-2.4-1.18-9.05,1.64-9.92l7.35.92Z"/>
        <path class="cls-18" d="M772.25,671.34c0-.33,0-.67,0-1h1c0,.76-.2,1.09-1,1Z"/>
        <path class="cls-12" d="M900.12,864.16h1c-.1.01-.21.97-.49.98-.6-.17-.43-.55-.51-.98Z"/>
        <path class="cls-19" d="M726.29,873.15c-.02,2.99.05,6,0,8.99,0,.33,0,.67,0,1-3.37-.42-6.57-.87-9.99-1-.07,3.32.07,6.67,0,9.99-2.99,0-6,0-8.99,0,.06-3.32-.04-6.68,0-10,2.98.08,6.02-.11,9,0,.06-2.99-.05-6.01,0-9h10Z"/>
        <path class="cls-19" d="M744.27,827.19c-.06,2.99.04,6.01,0,9-2.97.17-6.04-.24-9,0v-9s8.99,0,8.99,0Z"/>
        <path class="cls-19" d="M707.31,901.12c-.03,5.98.02,12,0,17.98h-8.99c-2.99,0-6,0-8.99,0-2.99,0-6,.02-8.99,0,0-2.99,0-6,0-8.99s0-6.01,0-9c5.43,1.07,11.57-1.07,16.49-1.08,3.04,0,6.82.96,10.49,1.08Z"/>
        <path class="cls-6" d="M707.31,919.1c-.06,15.3-.04,30.65,0,45.96h-9c0-11.97,0-23.99,0-35.96v-9.99h8.99Z"/>
        <path class="cls-6" d="M726.29,883.14c-.07,2.99.05,6.01,0,9-3.32,0-6.67,0-10,0-.06,2.99.05,6.01,0,9-2.99-.07-6.01.09-9,0,.02-2.99-.05-6,0-8.99,2.99,0,6,0,8.99,0,.07-3.32-.07-6.67,0-9.99,3.42.13,6.62.58,9.99,1Z"/>
        <path class="cls-19" d="M643.37,1002.02h9c0,6.31,0,12.67,0,18.98h-8.99v-8.99c0-3.32,0-6.67,0-9.99Z"/>
        <path class="cls-12" d="M698.32,919.1v9.99h-8.99v-9.99c2.99,0,6,0,8.99,0Z"/>
        <path class="cls-13" d="M468.54,901.12c-.02,11.97,0,23.99,0,35.96,0,24.96,0,49.97,0,74.93h-8.99c0-36.95,0-73.95,0-110.9h9Z"/>
        <path class="cls-7" d="M836.18,707.31c-2.98-.1-6.01.08-9,0-.05-2.99.08-6.01,0-9,2.67.07,5.45-.43,8.06.44,1.61,1.11.86,6.37.93,8.56Z"/>
        <path class="cls-19" d="M882.14,726.29c.06,2.99-.06,6,0,8.99h8.99c.02,2.99-.01,6,0,8.99-2.99-.03-6.01.03-9,0-.04-2.99.07-6.01,0-9-9.31,0-18.67,0-27.98,0v-9c9.3-.06,18.69-.18,27.98,0Z"/>
        <path class="cls-19" d="M919.1,772.25h9c.04,2.98-.06,6,0,8.99h-9c-.02-2.98.04-6,0-8.99Z"/>
        <path class="cls-19" d="M900.12,753.26h9s0,8.99,0,8.99c-2.62-.21-5.32.23-7.94-.05-.48-2.98-.8-5.92-1.05-8.94Z"/>
        <path class="cls-12" d="M807.21,689.33c-2.66,0-5.33.02-7.99,0v-1c2.3.53,6.32-1.15,7.99,1Z"/>
        <path class="cls-6" d="M680.34,910.11c0,2.99,0,6,0,8.99-6.31-.04-12.67.03-18.99,0-.02-2.99.04-6.01,0-9,6.31-.01,12.67,0,18.98,0Z"/>
        <path class="cls-12" d="M652.36,901.12c2.99.04,6.01-.03,9,0,.02,2.99-.04,6.01,0,9-2.99,0-6-.06-8.99,0v-8.99Z"/>
        <path class="cls-6" d="M919.1,845.17v9.99c-3-.06-6.11.43-9.06-.44l-.93-8.56c.27-.02.75-.98,1-1,2.93-.26,6.04.18,8.99,0Z"/>
      </g>
      <g>
        <path class="cls-6" d="M164.84,864.16c.08-5.99-.44-12.09.44-18.05l8.56-.94v18.99c-2.99.04-6.01-.06-9,0-.17,12.3.13,24.66,0,36.97h9s0,36.96,0,36.96h8.99v44.96h9c.24-5.15-.33-10.41-.05-15.56.07-1.29,1.03-2.29,1.04-2.42h8.99c.43,15.07-.44,30.23.14,45.32l1.5,1.5c2.44.37,4.91.08,7.36.14.1-6.31-.07-12.67,0-18.99,2.99-.02,6.01.04,9,0,.07-12.31-.05-24.66,0-36.97,2.99-.05,6.01.08,9,0,.04-6.31-.02-12.67,0-18.99h10c-.08,6.32.05,12.68,0,18.99-3.32.06-6.68-.09-10,0-.07,12.31.05,24.66,0,36.97-2.99.02-6.01-.04-9,0-.04,6.31.02,12.67,0,18.99-2.99-.06-6.01.07-9,0-.05,3.32.04,6.68,0,9.99-5.26.77-10.33-1.41-15.53-1.02-3.08.23-2.58-.45-2.46,3.01h-45.96v-21.98s-9,.01-9,.01v-9s-8.99,0-8.99,0v-17.98h-10s0,48.95,0,48.95h-44.96v-11.99s8.99,0,8.99,0v-27.97l8.55-.94-.57-18.05h10c.03-9.3-.06-18.66,0-27.97,2.99-.03,6.01.03,9,0,.05-5.98-.08-12.01,0-17.99,3.32-.09,6.67.06,9.99,0v-17.98h9s0-9,0-9c.63-.63,7.74,1.31,9-1.49v-17.48h9s-.01-9-.01-9c5.98-.08,12.01.12,17.99,0ZM182.82,993.03v18.98c2.2-.68,10.21,1.62,10-1.49-.38-5.64-1.8-11.53-1.01-17.49h-9ZM109.9,1012.01h-9v9h9v-9Z"/>
        <path class="cls-6" d="M284.72,1012.01c-.12-6.31.09-12.68,0-18.99h-9s0-23.47,0-23.47c-1.07-1.85-3.75-1.17-5-2-3.65-2.41,8.73-15.97,3.34-20.53l-8.33.05,1-63.95h9s0-27.97,0-27.97h17.98v8.99h27.97v109.9s8.99,0,8.99,0v18.98h8.99v30.97h-8.99v-30.97c-2.99,0-6-.06-8.99,0s-6.01-.05-9,0v18.41s9,.57,9,.57v11.99h-82.92v-13.99c2.73-.15,5.73,1.78,8.01-.48,2.63-2.6-1.62-5.54,1.48-7.52h26.47l.93,9.55c2.94.87,6.05.38,9.06.44.06,2.99-.04,6.01,0,9h9s0-9,0-9c-2.99-.04-6.01.06-9,0Z"/>
        <path class="cls-12" d="M376.63,744.27c2.99-.08,6.01.06,9,0v-9s17.98,0,17.98,0v9s-9-.01-9-.01c0,5.98,0,12,0,17.99h-9c-.06,3.31.09,6.67,0,9.99-.08,2.99.06,6.01,0,9h-9c-.02,5.97.04,12,0,17.98,2.99.08,6.01-.06,9,0,0,12.31-.02,24.66,0,36.97,0,3.32.01,6.67,0,9.99-.03,8.98.02,18,0,26.98h-9s0,54.94,0,54.94h-10s0,95.91,0,95.91h-26.97v-11.99h9s-.01-138.87-.01-138.87c2.99-.02,6.01.04,9,0s6,.03,8.99,0v-15.48c0-.28,1.02-2.33,1.68-2.53l8.31.04c.04-3.32-.06-6.68,0-10,.25-15.29-.09-30.66,0-45.96-3.32-.09-6.68.06-10,0,.07-12.31-.07-24.66,0-36.97h10s0-17.98,0-17.98Z"/>
        <polygon class="cls-10" points="118.88 1024 118.88 975.04 128.87 975.05 128.87 993.03 137.87 993.03 137.86 1002.03 146.86 1002.02 146.86 1024 118.88 1024"/>
        <path class="cls-2" d="M330.68,993.03v30.97h-8.99v-30.97c2.99-.06,6,0,8.99,0Z"/>
        <path class="cls-8" d="M357.65,640.37c.05.36,1.65,1.5.99,2.99-.98.07-2-.07-2.99,0l2-3Z"/>
        <path class="cls-19" d="M247.76,882.14v1c0,11.96.2,24,0,35.96h-9c-.04,2.98.07,6,0,8.99s.04,6,0,8.99h-10c-.02,6.31.04,12.67,0,18.98-2.99.08-6.01-.06-9,0-.04,12.31.07,24.66,0,36.97-2.99.03-6.01-.03-9,0-.07,6.31.11,12.67,0,18.99-2.44-.06-4.91.23-7.36-.14l-1.5-1.5c-.58-15.08.29-30.24-.14-45.32-.07-2.32.05-4.68,0-7h-9c.19-6.96-.08-14,0-20.97.16-14.97-.08-29.99,0-44.96,0-.33,0-.67,0-1,2.19-.43,4.55,1.16,6.52,1.02s2.32-1.97,2.47-2.02c1.82-.6,6.48.45,8.98-1v11.98h18.99l-.56-8.06,9.56-.93v-10s8.99,0,8.99,0Z"/>
        <path class="cls-19" d="M338.67,891.13c-.04,33.79,1,67.97,1,101.9h-8.99v-18.98c0-28.29-.06-56.63,0-84.92l7.99,2Z"/>
        <path class="cls-12" d="M339.67,809.21c2.98.11,6.01-.08,8.99,0v35.96h-9c-.06,13.83.08,27.69.05,41.53,0,1.89-1.04,3.77-1.04,4.42l-7.99-2c.03-17.64-.02-35.32,0-52.95h9c0-8.97-.03-17.99,0-26.97Z"/>
        <path class="cls-19" d="M256.75,753.26c9.31-.17,18.67.12,27.98,0v-9s26.97,0,26.97,0v9s-9-.01-9-.01c-.05,2.99.08,6.01,0,9h-8.99c-11.75,0-25.51-.93-36.96,0,0-2.99,0-6,0-8.99Z"/>
        <path class="cls-6" d="M284.72,799.22c-.06,3.32.04,6.68,0,10-2.99.05-6.01-.08-9,0,0,11.98,0,23.99,0,35.97-3.32.04-6.68-.06-10,0-.04,6.31.02,12.67,0,18.99-2.99.04-6.01-.07-9,0,0,6.32,0,12.67,0,18.99h-9v-18.99c2.99-.04,6,.06,8.99,0v-18.98c2.99-.06,6,.05,8.99,0,.07-11.97-.05-24,0-35.97,3.32-.06,6.68.09,10,0v-9.99c2.99,0,6,0,8.99,0Z"/>
        <path class="cls-6" d="M376.63,845.17c-.05,3.32.04,6.68,0,10l-8.31-.04c-.66.2-1.68,2.26-1.68,2.53v15.48c-2.99.03-6-.04-8.99,0v-17.99s9,.01,9,.01l.93-9.56,9.06-.44Z"/>
        <path class="cls-6" d="M339.67,809.21c-3.02-.12-6.92.99-8.99-1.5v-26.47h9c-.03,9.31.02,18.66,0,27.97Z"/>
        <path class="cls-6" d="M376.63,744.27v17.99s-9.99,0-9.99,0c.04-5.98-.02-12.01,0-17.99,3.32-.06,6.68.09,10,0Z"/>
        <path class="cls-19" d="M284.72,790.23c-.02,2.99.05,6,0,8.99-2.99,0-6,0-8.99,0-3.32,0-6.67,0-10,0v-9c6.31-.08,12.68.13,18.99,0Z"/>
        <path class="cls-6" d="M302.7,762.26c-.09,3.32.06,6.68,0,10-2.99.02-6.01-.04-9,0v-9.99h8.99Z"/>
        <path class="cls-6" d="M247.76,919.1c-.05,3.32.05,6.67,0,9.99l-8.99-1c.06-2.99-.05-6.01,0-9h9Z"/>
        <path class="cls-19" d="M293.71,772.25c0,2.99.06,6,0,8.99h-8.99c.06-2.99-.05-6.01,0-9,2.99-.02,6.01.04,9,0Z"/>
        <path class="cls-12" d="M293.71,781.24c-.06,2.99.05,6.01,0,9-2.99.04-6.01-.06-9,0,.02-2.99-.06-6,0-8.99h8.99Z"/>
        <path class="cls-10" d="M182.82,993.03h9c-.79,5.96.63,11.85,1.01,17.49.21,3.11-7.81.82-10,1.49v-18.98Z"/>
        <rect class="cls-10" x="100.9" y="1012.01" width="9" height="9"/>
        <path class="cls-12" d="M192.81,958.06h9c.05,2.32-.07,4.67,0,6.99h-8.99c.1-2.32-.06-4.67,0-6.99Z"/>
        <path class="cls-10" d="M321.69,993.03v18.98l-9.01-.57v-18.41c3-.04,6.02.07,9.01,0Z"/>
        <path class="cls-13" d="M238.77,864.16c2.99-.07,6,.04,8.99,0v17.98h-9s.01,10,.01,10l-9.56.93.56,8.06h-18.98v-11.98c-2.51,1.44-7.18.4-8.99,1v-16.98c2.99-.03,6.01.03,9,0,.05-2.65-.07-5.34,0-8l8.99,1c.07,2.32-.05,4.68,0,7l8.33.03c3.2-1.92-.21-7.42,1.62-8.57,2.93-.92,6.04-.39,9.04-.46Z"/>
        <path class="cls-6" d="M192.81,892.13c-.08,14.97.16,29.99,0,44.96-2.7-.27-5.94.39-8.53,0-1.37-.2-1.69.57-1.5-1.52l1.03-43.45h9Z"/>
        <path class="cls-6" d="M210.79,800.22c-.14,8.97.1,18,0,26.98h-8s-1,.99-1,.99c-.04,3.32.06,6.67,0,9.99-.1,5.64.04,11.34,0,16.98,2.99.04,6.01-.03,9,0-.06,3.32.08,6.68,0,10-.07,2.66.05,5.34,0,8-2.99.02-6.01-.04-9,0v16.98c-.15.05-.56,1.88-2.47,2.02s-4.33-1.45-6.52-1.02c.04-5.98-.03-12.01,0-17.99,2.99-.02,6.01.04,9,0,0-5.98-.04-12,0-17.98-2.99-.04-6,.03-8.99,0v-27.97h8.99v-26.47c0-2.79,7.19-.3,8.99-.5Z"/>
        <path class="cls-13" d="M293.71,762.26v9.99c-2.99.03-6.01-.03-9,0-.04,2.99.07,6.01,0,9s.02,6,0,8.99c-6.31.12-12.67-.09-18.99,0v9c3.32,0,6.67,0,10,0v9.99c-3.32.09-6.68-.06-10,0-.04,11.97.07,24,0,35.97-2.99.05-6-.06-8.99,0s-6.01-.05-9,0v9c-3.11-1-6.88.82-8.99.99-6.12.49-12.79-.36-18.98,0-.06-3.32.04-6.68,0-10h-9s0-7.99,0-7.99l-8.99,1c.06-3.32-.04-6.67,0-9.99l1-1h8c.09-8.97-.14-18,0-26.97,0-.33,0-.67,0-1h9c.04-2.98-.07-6,0-8.99,3.32-.09,6.68.06,10,0,.02-2.99-.04-6.01,0-9,2.99-.06,6.01.05,9,0v-9c2.98-.03,6,.03,8.99,0v-9c3.11,1,6.88-.82,8.99-.99,11.46-.93,25.22,0,36.96,0Z"/>
        <path class="cls-19" d="M256.75,845.17v18.98c-2.99.06-6-.04-8.99,0s-6-.07-8.99,0v-8.99c2.11-.17,5.87-1.99,9-.99v-9c2.98-.04,6,.07,8.99,0Z"/>
        <path class="cls-19" d="M238.77,772.25v9c-2.98.04-6-.07-8.99,0-.03,2.99.03,6.01,0,9-3.32.06-6.68-.09-10,0,.06-2.99,0-6,0-8.99,3.32-.02,6.67.07,9.99,0,.03-2.99-.03-6.01,0-9,2.99-.02,6.01.04,9,0Z"/>
        <path class="cls-6" d="M219.79,790.23c-.06,2.99.05,6.01,0,9h-9c.06-2.99-.05-6.01,0-9,2.99-.05,6.01.08,9,0Z"/>
        <path class="cls-19" d="M201.8,838.18l8.99-1v8s9-.01,9-.01c.04,3.32-.06,6.68,0,10,.06,3.65-.11,7.34,0,10.99l-8.99-1c.08-3.32-.06-6.68,0-10-2.99-.02-6.01.04-9,0,.04-5.65-.1-11.34,0-16.98Z"/>
        <path class="cls-6" d="M238.77,855.16v8.99c-3,.07-6.11-.46-9.04.46-1.83,1.15,1.58,6.65-1.62,8.57l-8.33-.03c-.05-2.32.07-4.67,0-7-.11-3.65.06-7.34,0-10.99,6.19-.36,12.86.49,18.98,0Z"/>
        <path class="cls-19" d="M201.8,828.19l1-1-1,1Z"/>
      </g>
    </g>
  </g>
</svg>